<svg id="Layer_1" data-name="Layer 1" xmlns="http://www.w3.org/2000/svg" viewBox="0 0 566.67 566.67">
    <defs>
        <style>
            .cls-1 {
                fill: none;
                stroke: #000;
                stroke-linecap: round;
                stroke-linejoin: round;
                stroke-width: 33.33px;
            }
        </style>
    </defs>
    <path class="cls-1"
        d="M371.67,181.09L299.51,26.97c-6.43-13.73-25.92-13.73-32.35,0l-72.16,154.12L31.85,206.08c-14.37,2.2-20.24,19.78-10.09,30.21l118.64,121.91-27.82,170.96c-2.4,14.76,13.22,25.79,26.28,18.56l144.47-80.06,144.47,80.06c13.05,7.23,28.68-3.8,26.28-18.56l-27.82-170.96,118.64-121.91c10.15-10.43,4.28-28.01-10.09-30.21l-163.15-24.99Z" />
</svg>


<svg id="Layer_1" data-name="Layer 1" xmlns="http://www.w3.org/2000/svg" viewBox="0 0 566.67 566.67">
    <path class="cls-1" fill=none stroke="#000" stroke-linecap="round"                 stroke-linejoin="round"
                stroke-width="33.33px"
        d="M371.67,181.09L299.51,26.97c-6.43-13.73-25.92-13.73-32.35,0l-72.16,154.12L31.85,206.08c-14.37,2.2-20.24,19.78-10.09,30.21l118.64,121.91-27.82,170.96c-2.4,14.76,13.22,25.79,26.28,18.56l144.47-80.06,144.47,80.06c13.05,7.23,28.68-3.8,26.28-18.56l-27.82-170.96,118.64-121.91c10.15-10.43,4.28-28.01-10.09-30.21l-163.15-24.99Z" />
</svg>


<svg width="18" height="18" viewBox="0 0 18 18" fill="none" xmlns="http://www.w3.org/2000/svg">
  <path d="M10.0852 15.6788C10.2094 15.6179 10.3141 15.5234 10.3874 15.4061C10.4607 15.2888 10.4997 15.1533 10.5 15.015V11.025C10.5 10.8285 10.5788 10.6395 10.7198 10.5L15.3105 5.95951C15.5917 5.68126 15.75 5.30326 15.75 4.90951V2.99251C15.7496 2.89449 15.7299 2.7975 15.692 2.7071C15.654 2.61671 15.5987 2.53468 15.529 2.46571C15.4593 2.39674 15.3768 2.34219 15.286 2.30518C15.1952 2.26817 15.098 2.24942 15 2.25001H3C2.58525 2.25001 2.25 2.58151 2.25 2.99251V4.90951C2.25 5.30326 2.40825 5.68126 2.6895 5.95951L7.28025 10.5C7.34981 10.5686 7.40505 10.6504 7.44277 10.7405C7.48049 10.8306 7.49995 10.9273 7.5 11.025V15.7575C7.5 16.3088 8.0865 16.6673 8.58525 16.4205L10.0852 15.6788Z"
        fill="#090909"/>
</svg>