<svg width="28" height="28" viewBox="0 0 28 28" fill="none" xmlns="http://www.w3.org/2000/svg">
<g id="ri:dribbble-fill">
<path id="Vector" d="M14 2.33333C7.55998 2.33333 2.33331 7.56 2.33331 14C2.33331 20.44 7.55998 25.6667 14 25.6667C20.4283 25.6667 25.6666 20.44 25.6666 14C25.6666 7.56 20.4283 2.33333 14 2.33333ZM21.7058 7.71167C23.1416 9.46086 23.9361 11.6484 23.9575 13.9113C23.6296 13.8483 20.3396 13.1775 17.024 13.5952C16.9481 13.4307 16.884 13.2533 16.8093 13.076C16.6029 12.5895 16.3835 12.1087 16.1513 11.634C19.8205 10.1407 21.4911 7.98933 21.7058 7.71167ZM14 4.05417C16.5316 4.05417 18.8463 5.00383 20.6056 6.56017C20.4283 6.81217 18.9221 8.82467 15.379 10.1535C13.7468 7.15517 11.9373 4.69933 11.6585 4.32017C12.426 4.14074 13.2118 4.05147 14 4.05417ZM9.76148 4.991C11.0966 6.8417 12.3301 8.76371 13.4563 10.7485C8.79898 11.9887 4.68648 11.9618 4.24431 11.9618C4.56495 10.4535 5.22969 9.03959 6.1867 7.83042C7.1437 6.62126 8.36711 5.64953 9.76148 4.991ZM4.02848 14.0117V13.7083C4.46015 13.72 9.29248 13.7842 14.266 12.2908C14.5576 12.8473 14.8225 13.4167 15.0756 13.986C14.9485 14.0245 14.8096 14.0618 14.6836 14.1003C9.54565 15.757 6.81215 20.2872 6.58465 20.6675C4.93936 18.8411 4.02795 16.4699 4.02848 14.0117ZM14 23.9715C11.785 23.9753 9.63276 23.2358 7.88781 21.8715C8.06515 21.504 10.0905 17.6062 15.708 15.645C15.7336 15.6333 15.7465 15.6333 15.771 15.6193C16.7187 18.064 17.4308 20.5935 17.8978 23.1735C16.6668 23.7032 15.3402 23.9748 14 23.9715ZM19.5545 22.2623C19.4541 21.6557 18.9221 18.7448 17.6178 15.1643C20.7445 14.6708 23.478 15.4805 23.8186 15.5948C23.6059 16.9401 23.1172 18.2268 22.3834 19.3743C21.6496 20.5217 20.6865 21.5049 19.5545 22.2623Z" fill="#23C9EE"/>
</g>
</svg>
