<svg width="28" height="28" viewBox="0 0 28 28" fill="none" xmlns="http://www.w3.org/2000/svg">
<g id="fe:instagram">
<g id="feInstagram0">
<g id="feInstagram1">
<path id="feInstagram2" fill-rule="evenodd" clip-rule="evenodd" d="M14 2.33333C10.8313 2.33333 10.4347 2.34733 9.18984 2.40333C7.94851 2.4605 7.10034 2.65767 6.35834 2.94583C5.57958 3.23849 4.87406 3.69755 4.29101 4.291C3.69759 4.87407 3.23853 5.57959 2.94584 6.35833C2.65768 7.10033 2.46051 7.9485 2.40334 9.18983C2.34618 10.4347 2.33334 10.8313 2.33334 14C2.33334 17.1687 2.34618 17.5653 2.40334 18.8102C2.46051 20.0515 2.65768 20.8997 2.94584 21.6417C3.23856 22.4204 3.69762 23.1259 4.29101 23.709C4.8741 24.3024 5.57961 24.7614 6.35834 25.0542C7.10034 25.3423 7.94851 25.5395 9.18984 25.5967C10.4347 25.6527 10.8313 25.6667 14 25.6667C17.1687 25.6667 17.5653 25.6527 18.8102 25.5967C20.0515 25.5395 20.8997 25.3423 21.6417 25.0542C22.4204 24.7615 23.1259 24.3024 23.709 23.709C24.3024 23.1259 24.7615 22.4204 25.0542 21.6417C25.3423 20.8997 25.5395 20.0515 25.5967 18.8102C25.6527 17.5653 25.6667 17.1687 25.6667 14C25.6667 10.8313 25.6527 10.4347 25.5967 9.18983C25.5395 7.9485 25.3423 7.10033 25.0542 6.35833C24.7615 5.57959 24.3024 4.87407 23.709 4.291C23.126 3.69755 22.4204 3.23849 21.6417 2.94583C20.8997 2.65767 20.0515 2.4605 18.8102 2.40333C17.5653 2.34733 17.1687 2.33333 14 2.33333ZM14 4.43567C17.115 4.43567 17.4837 4.44733 18.7133 4.50333C19.852 4.55583 20.4692 4.74483 20.881 4.90467C21.4247 5.117 21.8143 5.37017 22.2227 5.77733C22.631 6.18567 22.883 6.57533 23.0953 7.119C23.254 7.53083 23.4453 8.148 23.4967 9.2855C23.5527 10.5163 23.5643 10.8838 23.5643 14C23.5643 17.115 23.5527 17.4837 23.4967 18.7133C23.4442 19.852 23.254 20.4692 23.0953 20.881C22.9083 21.3878 22.6101 21.8462 22.2227 22.2227C21.8143 22.631 21.4247 22.883 20.881 23.0953C20.4692 23.254 19.852 23.4453 18.7145 23.4967C17.4848 23.5527 17.1162 23.5643 14 23.5643C10.885 23.5643 10.5152 23.5527 9.28668 23.4967C8.14801 23.4442 7.53084 23.254 7.11901 23.0953C6.61219 22.9084 6.15373 22.6102 5.77734 22.2227C5.38985 21.8463 5.09165 21.3878 4.90468 20.881C4.74484 20.4692 4.55468 19.852 4.50334 18.7145C4.44734 17.4837 4.43568 17.1162 4.43568 14C4.43568 10.885 4.44734 10.5163 4.50334 9.28667C4.55584 8.148 4.74484 7.53083 4.90468 7.119C5.11701 6.57533 5.37018 6.18567 5.77734 5.77733C6.18568 5.369 6.57534 5.117 7.11901 4.90467C7.53084 4.74483 8.14801 4.55467 9.28551 4.50333C10.5163 4.44733 10.8838 4.43567 14 4.43567ZM14 17.8885C12.9687 17.8885 11.9797 17.4788 11.2504 16.7496C10.5212 16.0204 10.1115 15.0313 10.1115 14C10.1115 12.9687 10.5212 11.9797 11.2504 11.2504C11.9797 10.5212 12.9687 10.1115 14 10.1115C15.0313 10.1115 16.0204 10.5212 16.7496 11.2504C17.4788 11.9797 17.8885 12.9687 17.8885 14C17.8885 15.0313 17.4788 16.0204 16.7496 16.7496C16.0204 17.4788 15.0313 17.8885 14 17.8885ZM14 8.00917C13.2133 8.00917 12.4343 8.16412 11.7074 8.46519C10.9806 8.76626 10.3202 9.20754 9.76385 9.76384C9.20755 10.3201 8.76627 10.9806 8.4652 11.7074C8.16413 12.4342 8.00918 13.2133 8.00918 14C8.00918 14.7867 8.16413 15.5658 8.4652 16.2926C8.76627 17.0194 9.20755 17.6799 9.76385 18.2362C10.3202 18.7925 10.9806 19.2337 11.7074 19.5348C12.4343 19.8359 13.2133 19.9908 14 19.9908C15.5889 19.9908 17.1127 19.3597 18.2362 18.2362C19.3597 17.1127 19.9908 15.5889 19.9908 14C19.9908 12.4111 19.3597 10.8873 18.2362 9.76384C17.1127 8.64034 15.5889 8.00917 14 8.00917ZM21.6277 7.77233C21.6277 7.95619 21.5915 8.13824 21.5211 8.30809C21.4508 8.47795 21.3476 8.63228 21.2176 8.76228C21.0876 8.89229 20.9333 8.99541 20.7634 9.06577C20.5936 9.13612 20.4115 9.17233 20.2277 9.17233C20.0438 9.17233 19.8618 9.13612 19.6919 9.06577C19.5221 8.99541 19.3677 8.89229 19.2377 8.76228C19.1077 8.63228 19.0046 8.47795 18.9342 8.30809C18.8639 8.13824 18.8277 7.95619 18.8277 7.77233C18.8277 7.40103 18.9752 7.04494 19.2377 6.78238C19.5003 6.51983 19.8564 6.37233 20.2277 6.37233C20.599 6.37233 20.9551 6.51983 21.2176 6.78238C21.4802 7.04494 21.6277 7.40103 21.6277 7.77233Z" fill="#23C9EE"/>
</g>
</g>
</g>
</svg>
