<svg width="28" height="28" viewBox="0 0 28 28" fill="none" xmlns="http://www.w3.org/2000/svg">
<g id="bxl:linkedin">
<path id="Vector" d="M5.8135 8.3965C7.2233 8.3965 8.36617 7.25363 8.36617 5.84383C8.36617 4.43403 7.2233 3.29117 5.8135 3.29117C4.4037 3.29117 3.26083 4.43403 3.26083 5.84383C3.26083 7.25363 4.4037 8.3965 5.8135 8.3965Z" fill="#23C9EE"/>
<path id="Vector_2" d="M10.7765 10.3308V24.493H15.1737V17.4895C15.1737 15.6415 15.5213 13.8518 17.8127 13.8518C20.0725 13.8518 20.1005 15.9647 20.1005 17.6062V24.4942H24.5V16.7277C24.5 12.9127 23.6787 9.98083 19.2197 9.98083C17.0788 9.98083 15.6438 11.1557 15.057 12.2675H14.9975V10.3308H10.7765ZM3.61084 10.3308H8.01501V24.493H3.61084V10.3308Z" fill="#23C9EE"/>
</g>
</svg>
