<svg width="28" height="28" viewBox="0 0 28 28" fill="none" xmlns="http://www.w3.org/2000/svg">
<g id="uil:twitter">
<path id="Vector" d="M25.6667 6.76667C24.7897 7.14711 23.8623 7.39861 22.9133 7.51333C23.9145 6.91521 24.6648 5.97425 25.025 4.865C24.0842 5.42507 23.0542 5.81968 21.98 6.03167C21.262 5.253 20.3058 4.73468 19.2615 4.55799C18.2171 4.38131 17.1436 4.55625 16.2094 5.05539C15.2752 5.55452 14.5331 6.34962 14.0995 7.31598C13.6658 8.28233 13.5652 9.36529 13.8133 10.395C11.911 10.2988 10.0502 9.80345 8.35177 8.94117C6.65336 8.0789 5.15533 6.86898 3.95501 5.39C3.534 6.1252 3.31278 6.95779 3.31334 7.805C3.31185 8.59178 3.50493 9.36672 3.87539 10.0608C4.24585 10.7549 4.7822 11.3467 5.43668 11.7833C4.67598 11.7626 3.93154 11.5585 3.26668 11.1883V11.2467C3.27238 12.349 3.65867 13.4156 4.36021 14.266C5.06175 15.1163 6.03548 15.6982 7.11668 15.9133C6.70048 16.04 6.26836 16.1068 5.83334 16.1117C5.53222 16.1081 5.23184 16.0808 4.93501 16.03C5.24291 16.9783 5.83874 17.807 6.6396 18.4009C7.44046 18.9947 8.40652 19.3241 9.40334 19.3433C7.72008 20.6678 5.64187 21.3907 3.50001 21.3967C3.11003 21.3979 2.72037 21.3746 2.33334 21.3267C4.52018 22.7386 7.06863 23.4882 9.67168 23.485C11.468 23.5037 13.25 23.1642 14.9136 22.4864C16.5773 21.8087 18.0892 20.8062 19.3611 19.5376C20.633 18.269 21.6393 16.7596 22.3213 15.0977C23.0034 13.4358 23.3474 11.6547 23.3333 9.85833V9.24C24.2488 8.55728 25.0384 7.72033 25.6667 6.76667Z" fill="#23C9EE"/>
</g>
</svg>
