<svg width="75" height="45" viewBox="0 0 75 45" fill="none" xmlns="http://www.w3.org/2000/svg">
<g clip-path="url(#clip0_4_382)">
<path d="M21.3793 16.0227C21.3793 16.9306 21.4771 17.6667 21.6482 18.2065C21.8437 18.7463 22.0882 19.3352 22.4304 19.9732C22.5526 20.1695 22.6015 20.3658 22.6015 20.5375C22.6015 20.7829 22.4548 21.0283 22.1371 21.2736L20.5971 22.3042C20.3771 22.4514 20.1571 22.525 19.9616 22.525C19.7171 22.525 19.4727 22.4023 19.2283 22.1815C18.886 21.8135 18.5927 21.4209 18.3483 21.0283C18.1038 20.6111 17.8594 20.1449 17.5905 19.5806C15.6839 21.838 13.2884 22.9667 10.404 22.9667C8.35075 22.9667 6.71301 22.3778 5.51526 21.2C4.31752 20.0222 3.70642 18.4519 3.70642 16.4889C3.70642 14.4033 4.43974 12.7102 5.93081 11.4343C7.42188 10.1583 9.40183 9.52038 11.9195 9.52038C12.7506 9.52038 13.6062 9.59399 14.5106 9.71668C15.415 9.83937 16.3439 10.0357 17.3216 10.2565V8.46529C17.3216 6.60047 16.9305 5.30001 16.1728 4.53936C15.3906 3.77871 14.0706 3.41065 12.1884 3.41065C11.3329 3.41065 10.4529 3.5088 9.5485 3.72963C8.64407 3.95047 7.7641 4.22038 6.90856 4.56389C6.51746 4.73565 6.22414 4.8338 6.05303 4.88288C5.88192 4.93195 5.7597 4.95649 5.66193 4.95649C5.31971 4.95649 5.14861 4.71112 5.14861 4.19584V2.99352C5.14861 2.60093 5.19749 2.30648 5.31971 2.13472C5.44193 1.96297 5.66193 1.79121 6.00414 1.61945C6.85967 1.17778 7.88631 0.809723 9.08406 0.515278C10.2818 0.196297 11.5529 0.0490741 12.8973 0.0490741C15.8061 0.0490741 17.9327 0.711575 19.3016 2.03658C20.646 3.36158 21.3304 5.37362 21.3304 8.0727V16.0227H21.3793ZM11.4551 19.7523C12.2618 19.7523 13.0928 19.6051 13.9728 19.3107C14.8528 19.0162 15.635 18.4764 16.295 17.7403C16.6861 17.2741 16.9794 16.7588 17.1261 16.1699C17.2727 15.581 17.3705 14.8695 17.3705 14.0352V13.0046C16.6616 12.8329 15.9039 12.6857 15.1217 12.5875C14.3395 12.4894 13.5817 12.4403 12.824 12.4403C11.1862 12.4403 9.98848 12.7593 9.18184 13.4218C8.37519 14.0843 7.98409 15.0167 7.98409 16.2435C7.98409 17.3968 8.27742 18.2556 8.88851 18.8445C9.47516 19.4579 10.3307 19.7523 11.4551 19.7523ZM31.0835 22.4023C30.6435 22.4023 30.3502 22.3287 30.1546 22.157C29.9591 22.0098 29.788 21.6662 29.6413 21.2L23.897 2.23287C23.7504 1.74213 23.677 1.42315 23.677 1.25139C23.677 0.858797 23.8726 0.637964 24.2637 0.637964H26.6592C27.1236 0.637964 27.4414 0.711575 27.6125 0.883334C27.808 1.03056 27.9547 1.37408 28.1014 1.84028L32.2079 18.0838L36.0212 1.84028C36.1434 1.34954 36.29 1.03056 36.4856 0.883334C36.6811 0.736112 37.0234 0.637964 37.4633 0.637964H39.4188C39.8833 0.637964 40.201 0.711575 40.3966 0.883334C40.5922 1.03056 40.7633 1.37408 40.861 1.84028L44.7232 18.2801L48.9519 1.84028C49.0986 1.34954 49.2697 1.03056 49.4408 0.883334C49.6364 0.736112 49.9541 0.637964 50.3941 0.637964H52.6674C53.0585 0.637964 53.2785 0.83426 53.2785 1.25139C53.2785 1.37408 53.2541 1.49676 53.2296 1.64398C53.2052 1.79121 53.1563 1.9875 53.0585 2.25741L47.1675 21.2246C47.0209 21.7153 46.8498 22.0343 46.6542 22.1815C46.4587 22.3287 46.1409 22.4269 45.7254 22.4269H43.6232C43.1588 22.4269 42.841 22.3533 42.6454 22.1815C42.4499 22.0098 42.2788 21.6908 42.181 21.2L38.3922 5.37362L34.6279 21.1755C34.5056 21.6662 34.359 21.9852 34.1634 22.157C33.9679 22.3287 33.6257 22.4023 33.1857 22.4023H31.0835ZM62.4938 23.0648C61.2227 23.0648 59.9517 22.9176 58.7295 22.6232C57.5073 22.3287 56.554 22.0098 55.9184 21.6417C55.5273 21.4209 55.2584 21.1755 55.1607 20.9547C55.0629 20.7338 55.014 20.4885 55.014 20.2676V19.0162C55.014 18.5009 55.2096 18.2556 55.5762 18.2556C55.7229 18.2556 55.8695 18.2801 56.0162 18.3292C56.1629 18.3783 56.3829 18.4764 56.6273 18.5746C57.4584 18.9426 58.3628 19.2371 59.3161 19.4334C60.2939 19.6297 61.2472 19.7278 62.2249 19.7278C63.7649 19.7278 64.9627 19.4579 65.7937 18.9181C66.6248 18.3783 67.0648 17.5931 67.0648 16.5871C67.0648 15.9 66.8448 15.3357 66.4048 14.8695C65.9648 14.4033 65.1338 13.9861 63.936 13.5935L60.3917 12.4894C58.6073 11.925 57.2873 11.0908 56.4806 9.98659C55.674 8.90696 55.2584 7.70464 55.2584 6.42871C55.2584 5.39815 55.4784 4.49028 55.9184 3.7051C56.3584 2.91991 56.9451 2.23287 57.6784 1.69306C58.4117 1.12871 59.2428 0.711575 60.2205 0.41713C61.1983 0.122685 62.2249 0 63.3005 0C63.8382 0 64.4004 0.0245371 64.9382 0.0981483C65.5004 0.171759 66.0137 0.269908 66.5271 0.368056C67.0159 0.490741 67.4804 0.613427 67.9203 0.760649C68.3603 0.907872 68.7026 1.05509 68.947 1.20232C69.2892 1.39861 69.5336 1.59491 69.6803 1.81574C69.827 2.01204 69.9003 2.28195 69.9003 2.62547V3.77871C69.9003 4.29399 69.7048 4.56389 69.3381 4.56389C69.1425 4.56389 68.8248 4.46575 68.4092 4.26945C67.0159 3.63149 65.4515 3.3125 63.716 3.3125C62.3227 3.3125 61.2227 3.53334 60.465 3.99954C59.7072 4.46575 59.3161 5.17732 59.3161 6.18334C59.3161 6.87038 59.5606 7.45927 60.0494 7.92547C60.5383 8.39168 61.4427 8.85788 62.7383 9.27501L66.2093 10.3792C67.9692 10.9435 69.2403 11.7287 69.9981 12.7347C70.7558 13.7408 71.1225 14.894 71.1225 16.1699C71.1225 17.225 70.9025 18.182 70.4869 19.0162C70.047 19.8505 69.4603 20.5866 68.7026 21.1755C67.9448 21.7889 67.0404 22.2306 65.9893 22.5496C64.8893 22.8931 63.7405 23.0648 62.4938 23.0648Z" fill="white"/>
<path fill-rule="evenodd" clip-rule="evenodd" d="M67.1137 34.9898C59.0717 40.9523 47.3875 44.1176 37.3411 44.1176C23.2615 44.1176 10.5751 38.8912 0.993153 30.2051C0.235394 29.518 0.919821 28.5856 1.82424 29.1255C12.1884 35.1616 24.9725 38.8176 38.1967 38.8176C47.1187 38.8176 56.9206 36.9528 65.9404 33.125C67.2848 32.5116 68.4337 34.0083 67.1137 34.9898Z" fill="#FF9900"/>
<path fill-rule="evenodd" clip-rule="evenodd" d="M70.4625 31.1621C69.4359 29.8371 63.6671 30.5241 61.0516 30.8431C60.2694 30.9412 60.1472 30.2542 60.8561 29.7389C65.4515 26.5 73.0047 27.4324 73.8846 28.5121C74.7646 29.6162 73.6402 37.1982 69.3381 40.8297C68.6781 41.394 68.0426 41.0996 68.3359 40.3635C69.3136 37.9343 71.4891 32.4625 70.4625 31.1621Z" fill="#FF9900"/>
</g>
<defs>
<clipPath id="clip0_4_382">
<rect width="75" height="44.1176" fill="white"/>
</clipPath>
</defs>
</svg>
