<svg width="138" height="33" viewBox="0 0 138 33" fill="none" xmlns="http://www.w3.org/2000/svg">
<path d="M26.5009 0.902344H5.10583C2.28596 0.902344 0 3.18831 0 6.00818V27.5341C0 30.354 2.28596 32.64 5.10583 32.64H26.5009C29.3208 32.64 31.6068 30.354 31.6068 27.5341V6.00818C31.6068 3.18831 29.3208 0.902344 26.5009 0.902344Z" fill="url(#paint0_linear_4_436)"/>
<path d="M16.0419 14.5654C16.8492 14.5654 17.461 14.3926 17.8781 14.0388C18.2951 13.685 18.5035 13.1697 18.5035 12.4851C18.5035 11.8091 18.2951 11.2955 17.8781 10.9444C17.4583 10.5845 16.849 10.4045 16.0419 10.4045H13.2075V14.5657L16.0419 14.5654ZM16.2147 23.1644C17.2435 23.1644 18.0153 22.9496 18.5299 22.5192C19.0533 22.0891 19.315 21.4395 19.315 20.5705C19.315 19.7187 19.0577 19.0824 18.5432 18.6612C18.0287 18.2311 17.2527 18.0161 16.215 18.0161H13.2078V23.1649H16.215M20.9783 16.0937C22.0783 16.4098 22.9298 16.9937 23.533 17.845C24.1362 18.6963 24.4376 19.7411 24.4379 20.9791C24.4379 22.8752 23.7903 24.2887 22.4953 25.2193C21.2003 26.1498 19.2313 26.615 16.5878 26.615H8.08563V6.95483H15.7765C18.5351 6.95483 20.531 7.36715 21.7637 8.19253C23.0056 9.01766 23.6266 10.3391 23.6266 12.1562C23.6266 13.1132 23.4004 13.9294 22.9481 14.6054C22.4958 15.2725 21.8371 15.7658 20.9788 16.0935" fill="white"/>
<path d="M45.5898 15.5223V20.8623H48.7538C49.8138 20.8623 50.5998 20.6443 51.1078 20.2083C51.6218 19.7653 51.8778 19.0913 51.8778 18.1883C51.8778 17.2883 51.6208 16.6063 51.1078 16.1763C50.5998 15.7403 49.8158 15.5223 48.7538 15.5223H45.5898ZM45.5898 9.52634V13.9213H48.5098C49.4738 13.9213 50.1898 13.7413 50.6578 13.3843C51.1328 13.0193 51.3708 12.4663 51.3708 11.7243C51.3708 10.9883 51.1328 10.4383 50.6578 10.0743C50.1828 9.71034 49.4728 9.52734 48.5098 9.52734L45.5898 9.52634ZM43.6168 7.90734H48.6568C50.1608 7.90734 51.3198 8.22034 52.1338 8.84534C52.9478 9.47034 53.3538 10.3593 53.3538 11.5113C53.3538 12.4033 53.1458 13.1133 52.7288 13.6413C52.3118 14.1693 51.6988 14.4973 50.8928 14.6273C51.8628 14.8353 52.6148 15.2723 53.1488 15.9273C53.6888 16.5853 53.9488 17.4073 53.9488 18.3973C53.9488 19.6993 53.5058 20.7053 52.6208 21.4153C51.7358 22.1253 50.4758 22.4793 48.8408 22.4793H43.6068V7.90234" fill="white"/>
<path d="M61.3878 12.8063C60.9429 12.7914 60.5013 12.8871 60.1025 13.0848C59.7037 13.2825 59.3602 13.5762 59.1028 13.9393C58.5428 14.6893 58.2628 15.7163 58.2628 17.0253C58.2628 18.3343 58.5398 19.3653 59.0928 20.1213C59.6528 20.8713 60.4178 21.2443 61.3878 21.2443C61.8312 21.2585 62.2711 21.1624 62.6681 20.9647C63.0652 20.7669 63.407 20.4737 63.6628 20.1113C64.2228 19.3563 64.5028 18.3273 64.5028 17.0253C64.5028 15.7293 64.2228 14.7053 63.6628 13.9493C63.1028 13.1873 62.3448 12.8063 61.3878 12.8063ZM61.3878 11.2833C62.9498 11.2833 64.1878 11.7913 65.0698 12.8063C65.9518 13.8213 66.4078 15.2283 66.4078 17.0263C66.4078 18.8243 65.9618 20.2233 65.0698 21.2463C64.1778 22.2623 62.9498 22.7693 61.3878 22.7693C59.8178 22.7693 58.5878 22.2613 57.6878 21.2463C56.8028 20.2243 56.3598 18.8183 56.3598 17.0263C56.3598 15.2293 56.8028 13.8233 57.6878 12.8063C58.5798 11.7903 59.8098 11.2833 61.3878 11.2833Z" fill="white"/>
<path d="M73.5148 12.8063C73.0699 12.7914 72.6283 12.8871 72.2295 13.0848C71.8307 13.2825 71.4872 13.5762 71.2298 13.9393C70.6698 14.6893 70.3898 15.7163 70.3898 17.0253C70.3898 18.3343 70.6668 19.3653 71.2198 20.1213C71.7798 20.8713 72.5448 21.2443 73.5148 21.2443C73.9582 21.2585 74.3981 21.1624 74.7952 20.9647C75.1922 20.7669 75.534 20.4737 75.7898 20.1113C76.3498 19.3563 76.6298 18.3273 76.6298 17.0253C76.6298 15.7293 76.3498 14.7053 75.7898 13.9493C75.2298 13.1873 74.4718 12.8063 73.5148 12.8063ZM73.5148 11.2833C75.0768 11.2833 76.3148 11.7913 77.1968 12.8063C78.0788 13.8213 78.5348 15.2283 78.5348 17.0263C78.5348 18.8243 78.0888 20.2233 77.1968 21.2463C76.3048 22.2623 75.0768 22.7693 73.5148 22.7693C71.9448 22.7693 70.7148 22.2613 69.8148 21.2463C68.9298 20.2243 68.4868 18.8183 68.4868 17.0263C68.4868 15.2293 68.9298 13.8233 69.8148 12.8063C70.7068 11.7903 71.9368 11.2833 73.5148 11.2833Z" fill="white"/>
<path d="M83.1798 8.44033V11.5453H86.8798V12.9413H83.1798V18.8793C83.1798 19.7713 83.2998 20.3443 83.5398 20.5993C83.7868 20.8533 84.2848 20.9793 85.0338 20.9793H86.8798V22.4833H85.0328C83.6458 22.4833 82.6888 22.2263 82.1628 21.7133C81.6358 21.1933 81.3628 20.2483 81.3628 18.8813V12.9413H80.0448V11.5453H81.3628V8.44233H83.1698M96.1158 11.8693V13.5693C95.6139 13.3111 95.0828 13.1144 94.5338 12.9833C93.9868 12.8533 93.4208 12.7883 92.8338 12.7883C91.9418 12.7883 91.2708 12.9253 90.8218 13.1883C90.3788 13.4613 90.1578 13.8723 90.1578 14.4183C90.1578 14.8353 90.3178 15.1633 90.6378 15.4043C90.9578 15.6383 91.5978 15.8643 92.5618 16.0783L93.1768 16.2153C94.4528 16.4883 95.3568 16.8753 95.8918 17.3773C96.4318 17.8723 96.6918 18.5653 96.6918 19.4573C96.7062 19.9272 96.6042 20.3932 96.3948 20.8141C96.1854 21.2349 95.8752 21.5974 95.4918 21.8693C94.6918 22.4613 93.5878 22.7693 92.1918 22.7693C91.6058 22.7693 90.9938 22.7093 90.3558 22.5933C89.7238 22.4933 89.0558 22.3133 88.3538 22.0853V20.2303C89.0178 20.5753 89.6718 20.8353 90.3168 21.0103C90.9412 21.177 91.5845 21.2624 92.2308 21.2643C93.0768 21.2643 93.7278 21.1213 94.1838 20.8343C94.6398 20.5413 94.8678 20.1313 94.8678 19.6043C94.8678 19.1163 94.7018 18.7413 94.3698 18.4813C94.0438 18.2213 93.3248 17.9813 92.2118 17.7293L91.5868 17.5833C90.4738 17.3493 89.6698 16.9913 89.1748 16.5093C88.6798 16.0213 88.4328 15.3533 88.4328 14.5073C88.4328 13.4773 88.7978 12.6843 89.5268 12.1243C90.2558 11.5643 91.2908 11.2843 92.6318 11.2843C93.2598 11.2813 93.8869 11.3302 94.5068 11.4303C95.0611 11.5192 95.6044 11.6664 96.1278 11.8693M101.261 8.43933V11.5443H104.961V12.9403H101.261V18.8783C101.261 19.7703 101.381 20.3433 101.621 20.5983C101.868 20.8523 102.366 20.9783 103.115 20.9783H104.963V22.4823H103.117C101.73 22.4823 100.773 22.2253 100.247 21.7123C99.7198 21.1923 99.4468 20.2473 99.4468 18.8803V12.9403H98.1288V11.5443H99.4468V8.44233H101.263M113.563 13.2273C113.356 13.1083 113.132 13.0226 112.899 12.9733C112.643 12.9116 112.381 12.882 112.119 12.8853C111.103 12.8853 110.322 13.2173 109.775 13.8813C109.235 14.5393 108.975 15.4863 108.975 16.7233V22.4853H107.168V11.5453H108.975V13.2453C109.353 12.5813 109.845 12.0893 110.45 11.7703C111.055 11.4443 111.79 11.2823 112.657 11.2823C112.794 11.2832 112.931 11.2929 113.067 11.3113L113.565 11.3793L113.575 13.2253M120.349 16.9853C118.897 16.9853 117.891 17.1513 117.331 17.4833C116.771 17.8153 116.491 18.3813 116.491 19.1833C116.491 19.8213 116.699 20.3293 117.116 20.7063C117.539 21.0763 118.112 21.2633 118.836 21.2633C119.832 21.2633 120.63 20.9113 121.229 20.2083C121.834 19.5083 122.137 18.5583 122.137 17.3863V16.9863H120.35M123.934 16.2443V22.4843H122.137V20.8243C121.737 21.4883 121.217 21.9803 120.604 22.2993C119.992 22.6113 119.244 22.7693 118.358 22.7693C117.238 22.7693 116.346 22.4573 115.682 21.8323C115.024 21.2003 114.696 20.3573 114.696 19.3023C114.696 18.0723 115.096 17.1443 115.926 16.5193C116.756 15.8943 117.983 15.5823 119.626 15.5823H122.146V15.4063C122.146 14.5793 121.873 13.9413 121.326 13.4923C120.786 13.0363 120.024 12.8083 119.041 12.8083C118.416 12.8083 117.807 12.8833 117.215 13.0333C116.619 13.1845 116.045 13.411 115.506 13.7073V12.0473C116.164 11.7933 116.802 11.6043 117.42 11.4813C118.014 11.3539 118.619 11.2885 119.227 11.2863C120.809 11.2863 121.991 11.6863 122.772 12.5163C123.553 13.3463 123.944 14.5803 123.944 16.2463M129.294 20.8423V26.6423H127.487V11.5463H129.294V13.2063C129.672 12.5563 130.147 12.0733 130.72 11.7613C131.3 11.4413 131.99 11.2813 132.79 11.2813C133.416 11.2669 134.036 11.4031 134.599 11.6784C135.161 11.9537 135.649 12.3601 136.022 12.8633C136.855 13.9183 137.272 15.3033 137.272 17.0233C137.272 18.7433 136.855 20.1283 136.022 21.1833C135.649 21.6866 135.161 22.0929 134.599 22.3682C134.036 22.6435 133.416 22.7797 132.79 22.7653C131.99 22.7653 131.29 22.6093 130.72 22.2953C130.147 21.9753 129.672 21.4913 129.294 20.8403M135.407 17.0223C135.407 15.7003 135.134 14.6653 134.587 13.9173C134.047 13.1623 133.301 12.7843 132.351 12.7843C131.911 12.7696 131.475 12.8656 131.083 13.0636C130.69 13.2616 130.354 13.5552 130.105 13.9173C129.565 14.6673 129.305 15.7013 129.305 17.0223C129.305 18.3433 129.575 19.3823 130.105 20.1373C130.652 20.8873 131.401 21.2603 132.351 21.2603C133.301 21.2603 134.047 20.8863 134.587 20.1373C135.134 19.3823 135.407 18.3433 135.407 17.0223Z" fill="white"/>
<defs>
<linearGradient id="paint0_linear_4_436" x1="1.82333" y1="30.9942" x2="29.6617" y2="2.66964" gradientUnits="userSpaceOnUse">
<stop stop-color="#070135"/>
<stop offset="1" stop-color="#612D50"/>
</linearGradient>
</defs>
</svg>
