<svg width="140" height="36" viewBox="0 0 140 36" fill="none" xmlns="http://www.w3.org/2000/svg">
<path d="M10.0141 23.3336C10.0141 22.2836 9.65475 21.5265 8.93608 21.0802C8.2285 20.634 7.19425 20.4105 5.83275 20.4105V16.5022C6.50767 16.5022 7.10675 16.4538 7.62942 16.3552C8.16317 16.2467 8.60942 16.0775 8.96875 15.8489C9.32808 15.6155 9.59467 15.3046 9.76908 14.9342C9.954 14.5638 10.0357 14.1175 10.0141 13.5955V8.40205C10.0141 7.59705 10.1173 6.91046 10.3244 6.34463C10.5315 5.7613 10.9077 5.2993 11.4351 4.93996C11.9793 4.57013 12.7143 4.2983 13.6401 4.1233C14.5658 3.9483 15.7407 3.8678 17.1675 3.8678V7.5428C16.7678 7.55135 16.3692 7.58957 15.9752 7.65713C15.6269 7.72305 15.3335 7.84205 15.0768 8.01646C14.8435 8.1798 14.6522 8.40846 14.5215 8.70246C14.3908 8.99646 14.3255 9.37738 14.3255 9.8458V14.7283C14.2602 16.77 12.9862 17.9728 10.5047 18.3537V18.5497C11.7565 18.7346 12.7213 19.133 13.3787 19.7257C14.0362 20.3184 14.3587 21.1356 14.3261 22.1582V27.0407C14.3261 27.5091 14.3914 27.89 14.5221 28.184C14.6527 28.478 14.8371 28.7067 15.0774 28.87C15.3282 29.045 15.6275 29.164 15.9757 29.2294C16.3351 29.2953 16.7323 29.3326 17.1681 29.3437V33.0345C15.7418 33.0345 14.5664 32.947 13.6407 32.7731C12.7149 32.5993 11.9805 32.3269 11.4357 31.9565C10.9019 31.5971 10.5315 31.1281 10.325 30.5518C10.1185 29.9755 10.0147 29.2836 10.0147 28.478V23.333M131.955 28.478C131.955 29.283 131.851 29.9749 131.644 30.5518C131.437 31.1287 131.061 31.5971 130.517 31.9565C129.984 32.3263 129.254 32.5981 128.33 32.7731C127.405 32.9481 126.233 33.0345 124.801 33.0345V29.3437C125.237 29.3309 125.628 29.2941 125.977 29.2294C126.326 29.1646 126.619 29.0445 126.859 28.87C127.11 28.7067 127.3 28.478 127.431 28.184C127.573 27.89 127.643 27.5091 127.643 27.0407V22.1582C127.611 21.135 127.926 20.3236 128.591 19.7257C129.255 19.1278 130.208 18.7352 131.449 18.5497V18.3537C128.977 17.9728 127.716 16.7641 127.644 14.7283V9.8458C127.644 9.37796 127.574 8.99646 127.432 8.70246C127.313 8.42254 127.114 8.18392 126.86 8.01646C126.627 7.84263 126.326 7.72246 125.978 7.65713C125.589 7.58794 125.196 7.54971 124.802 7.5428V3.8678C126.228 3.8678 127.404 3.9553 128.329 4.12913C129.255 4.30296 129.984 4.57538 130.517 4.9458C131.061 5.30513 131.437 5.77296 131.644 6.35046C131.851 6.9163 131.954 7.6023 131.954 8.40788V13.6013C131.942 14.124 132.024 14.5696 132.199 14.94C132.374 15.3105 132.64 15.615 132.999 15.8547C133.359 16.0834 133.8 16.2514 134.322 16.361C134.856 16.459 135.46 16.508 136.135 16.508V20.4164C134.775 20.4164 133.735 20.6392 133.016 21.086C132.309 21.5323 131.955 22.2836 131.955 23.3395V28.4845" fill="white"/>
<path d="M24.1529 29.4897C23.7819 29.4897 23.4529 29.4646 23.1811 29.4127C22.9046 29.3689 22.6642 29.3077 22.4607 29.2272V27.4812C22.7226 27.5498 22.9888 27.6009 23.2575 27.6341C23.561 27.6794 23.8676 27.7014 24.1745 27.7C24.4475 27.6998 24.7192 27.6631 24.9824 27.5909C25.2556 27.5271 25.5099 27.4 25.725 27.2199C25.9507 27.0379 26.1333 26.7871 26.271 26.4616C26.4087 26.1361 26.4787 25.7336 26.4787 25.2389V9.27891H28.5203V25.0254C28.5203 25.7837 28.4112 26.4517 28.1937 27.0122C27.9825 27.5722 27.6844 28.0348 27.2982 28.3988C26.9191 28.7698 26.4612 29.0428 25.9227 29.2178C25.3977 29.3998 24.6662 29.4908 24.0182 29.4908M38.6674 23.5846H38.5799C38.3396 23.9112 38.0998 24.1959 37.8595 24.4362C37.6256 24.6646 37.3612 24.8593 37.0737 25.0149C36.7897 25.1677 36.4729 25.2803 36.1241 25.3532C35.7752 25.4262 35.3657 25.4623 34.9125 25.4623C34.4108 25.4623 33.9482 25.3888 33.5259 25.2442C33.1157 25.1128 32.7393 24.893 32.4234 24.6002C32.1177 24.3085 31.8774 23.9305 31.703 23.4918C31.528 23.0409 31.4405 22.5095 31.4405 21.8982C31.4405 20.7047 31.8587 19.7877 32.6958 19.1472C33.5399 18.5067 34.8209 18.1572 36.5382 18.0989L38.5467 18.0219V17.2636C38.5467 16.7759 38.4918 16.3682 38.3833 16.0409C38.2812 15.7142 38.1284 15.4576 37.9248 15.2552C37.7282 15.051 37.4815 14.9052 37.1822 14.8177C36.8906 14.7302 36.5563 14.687 36.1777 14.687C35.6032 14.6821 35.0317 14.7706 34.4855 14.9489C33.9687 15.1239 33.4705 15.3339 32.9898 15.5818L32.291 14.0862C32.8294 13.7945 33.4297 13.5477 34.0923 13.3436C34.768 13.1379 35.4708 13.0348 36.1772 13.0379C36.9197 13.0379 37.5597 13.1149 38.0987 13.2672C38.6447 13.413 39.0921 13.6492 39.4415 13.9765C39.7915 14.2973 40.0639 14.708 40.2383 15.2102C40.4127 15.7125 40.5008 16.3203 40.5008 17.0332V25.2424H39.067L38.6674 23.5846ZM35.4252 23.8517C35.8686 23.8517 36.2804 23.7817 36.659 23.6441C37.0376 23.5064 37.359 23.2982 37.6413 23.0217C37.9178 22.7376 38.1325 22.3847 38.2853 21.9629C38.4452 21.5336 38.5257 21.0313 38.5257 20.4562V19.3752L36.9647 19.4522C36.3096 19.4814 35.7601 19.5543 35.3162 19.6704C34.8722 19.7865 34.5158 19.9504 34.2463 20.1616C33.9916 20.3557 33.7952 20.6163 33.6787 20.9147C33.5621 21.2063 33.5037 21.5371 33.5037 21.9081C33.5037 22.5777 33.6787 23.0747 34.0276 23.3816C34.3776 23.6948 34.8442 23.8512 35.4247 23.8512M42.168 13.2578H44.2202L46.3925 19.9271L46.6766 20.8604L47.0032 22.0177L47.2978 23.1261L47.4833 23.9229H47.5592L47.7447 23.1261L48.0392 22.0177L48.3659 20.8604L48.65 19.9271L50.8223 13.2572H52.8745L48.7807 25.2436H46.2583L42.168 13.2578ZM60.9933 23.5846H60.9058C60.6655 23.9112 60.4258 24.1959 60.1854 24.4362C59.9516 24.6646 59.6871 24.8593 59.3997 25.0149C59.1156 25.1677 58.7988 25.2803 58.45 25.3532C58.1012 25.4262 57.6917 25.4623 57.2384 25.4623C56.7367 25.4623 56.2742 25.3888 55.8518 25.2442C55.4416 25.1128 55.0652 24.893 54.7493 24.6002C54.4437 24.3085 54.2033 23.9305 54.0289 23.4918C53.8539 23.0409 53.7664 22.5095 53.7664 21.8982C53.7664 20.7047 54.1847 19.7877 55.0217 19.1472C55.8658 18.5067 57.1468 18.1572 58.8642 18.0989L60.8726 18.0219V17.2636C60.8726 16.7759 60.8177 16.3682 60.7092 16.0409C60.6072 15.7142 60.4543 15.4576 60.2508 15.2552C60.0542 15.051 59.8074 14.9052 59.5082 14.8177C59.2165 14.7302 58.8822 14.687 58.5037 14.687C57.9291 14.6821 57.3576 14.7706 56.8114 14.9489C56.2946 15.1239 55.7964 15.3339 55.3158 15.5818L54.6169 14.0862C55.1553 13.7945 55.7556 13.5477 56.4183 13.3436C57.094 13.1379 57.7967 13.0348 58.5031 13.0379C59.2457 13.0379 59.8856 13.1149 60.4246 13.2672C60.9706 13.413 61.418 13.6492 61.7674 13.9765C62.1174 14.2973 62.3898 14.708 62.5642 15.2102C62.7387 15.7125 62.8268 16.3203 62.8268 17.0332V25.2424H61.3976L60.9933 23.5846ZM57.7512 23.857C58.1945 23.857 58.6063 23.787 58.9849 23.6493C59.3635 23.5117 59.6849 23.3034 59.9672 23.0269C60.2437 22.7428 60.4584 22.3899 60.6112 21.9682C60.7711 21.5388 60.8516 21.0366 60.8516 20.4614V19.3805L59.2906 19.4575C58.6355 19.4867 58.086 19.5596 57.6421 19.6757C57.1982 19.7917 56.8418 19.9557 56.5723 20.1668C56.3175 20.361 56.1211 20.6215 56.0047 20.9199C55.888 21.2116 55.8297 21.5423 55.8297 21.9133C55.8297 22.583 56.0047 23.08 56.3535 23.3868C56.7035 23.7001 57.1702 23.8564 57.7506 23.8564M75.0721 20.9747C75.0721 21.6747 74.9449 22.3135 74.69 22.8741C74.4427 23.4271 74.0857 23.8967 73.6202 24.2822C73.1547 24.6678 72.5865 24.963 71.9168 25.1666C71.2472 25.3632 70.4935 25.4612 69.657 25.4612C68.8491 25.4612 68.0925 25.3952 67.3867 25.2646C66.6878 25.1403 66.1022 24.9554 65.6291 24.7075V22.765L66.4691 23.115L67.4736 23.4096L68.5545 23.6277C68.9218 23.6786 69.2921 23.7043 69.6628 23.7047C70.8272 23.7047 71.6858 23.4866 72.2388 23.0497C72.7988 22.6122 73.0788 21.9868 73.0788 21.1713C73.0788 20.7782 73.024 20.4363 72.9155 20.1447C72.8134 19.853 72.6279 19.5882 72.359 19.3478C72.0965 19.1005 71.7442 18.8637 71.3002 18.6385C70.8569 18.4052 70.2957 18.1543 69.6191 17.8802C68.9774 17.6252 68.4075 17.3552 67.9274 17.0507C67.4607 16.745 67.0612 16.409 66.7491 16.024C66.4414 15.6413 66.208 15.2044 66.0607 14.736C65.9149 14.2559 65.8426 13.7093 65.8426 13.0986C65.8426 12.4581 65.9592 11.887 66.1926 11.3847C66.4259 10.8825 66.7526 10.4602 67.1749 10.1189C67.5972 9.76891 68.0989 9.50407 68.6811 9.32207C69.2632 9.14007 69.9178 9.04907 70.6236 9.04907C71.4898 9.04907 72.2686 9.13249 72.9598 9.29991C73.6511 9.45974 74.2665 9.66741 74.8049 9.92232L74.0734 11.6257C73.6068 11.4145 73.0619 11.2325 72.4576 11.0797C71.8525 10.9185 71.2288 10.8377 70.6026 10.8393C69.7147 10.8393 69.0276 11.047 68.5393 11.4617C68.0517 11.8701 67.8078 12.4225 67.8078 13.1207C67.8078 13.5291 67.8627 13.8966 67.9712 14.2017C68.0803 14.5003 68.2628 14.7733 68.5172 15.0207C68.7721 15.261 69.1005 15.4902 69.5217 15.709C70.0275 15.9584 70.5447 16.1842 71.0716 16.3857C71.7337 16.6482 72.3123 16.9107 72.807 17.1936C73.3087 17.4701 73.7275 17.7769 74.0623 18.1269C74.3954 18.4736 74.6519 18.8864 74.8154 19.3385C74.9904 19.797 75.0826 20.3593 75.0826 20.9858M82.4693 25.4495C81.7343 25.4495 81.046 25.3363 80.4061 25.1112C79.772 24.8824 79.2001 24.5086 78.736 24.0197C78.2693 23.5181 77.8919 22.8811 77.6277 22.1093C77.3582 21.3306 77.224 20.3955 77.224 19.3093C77.224 18.166 77.3623 17.1988 77.6323 16.4055C77.9088 15.6052 78.2874 14.9571 78.7675 14.463C79.2552 13.9613 79.8175 13.5967 80.4708 13.3722C81.1242 13.1476 81.8137 13.0338 82.5557 13.0338C83.1139 13.0329 83.6704 13.0951 84.2147 13.2193C84.7607 13.3436 85.2151 13.4958 85.5797 13.6778L84.9963 15.359C84.8145 15.2804 84.6287 15.2111 84.4398 15.1513C84.2329 15.0766 84.0215 15.0146 83.8069 14.9658C83.5952 14.9088 83.3801 14.865 83.1629 14.8346C82.9518 14.7984 82.7517 14.7797 82.5621 14.7797C81.4188 14.7797 80.5863 15.1472 80.0625 15.8881C79.5387 16.6155 79.2768 17.7512 79.2768 19.2936C79.2768 20.8295 79.5393 21.9536 80.0625 22.667C80.5875 23.367 81.4042 23.7257 82.4752 23.7257C83.0585 23.7257 83.5952 23.6598 84.0688 23.5292C84.5489 23.3909 84.9858 23.2375 85.379 23.0491V24.8177C84.9791 25.0313 84.5535 25.1926 84.1126 25.2978C83.6692 25.4069 83.0935 25.4612 82.446 25.4612M93.2943 13.0385L94.0036 13.0706C94.2306 13.081 94.4567 13.1067 94.6803 13.1476L94.4177 14.9816L93.7848 14.8941C93.5737 14.8649 93.3736 14.8503 93.184 14.8503C92.7255 14.8503 92.3073 14.9448 91.9287 15.1344C91.5495 15.3164 91.2287 15.5818 90.9463 15.9312C90.6768 16.2731 90.4662 16.6884 90.3134 17.1755C90.1676 17.6556 90.0953 18.1905 90.0953 18.7797V25.2418H88.1084V13.2584H89.7243L89.9646 15.4517H90.0521L90.6308 14.5458C90.831 14.2648 91.0658 14.01 91.3296 13.7875C91.5897 13.563 91.8847 13.3823 92.2028 13.2526C92.5237 13.1143 92.9203 13.0449 93.3287 13.0449" fill="white"/>
<path d="M24.1529 29.4897C23.7819 29.4897 23.4529 29.4646 23.1811 29.4127C22.9046 29.3689 22.6642 29.3077 22.4607 29.2272V27.4812C22.7226 27.5498 22.9888 27.6009 23.2575 27.6341C23.561 27.6794 23.8676 27.7014 24.1745 27.7C24.4475 27.6998 24.7192 27.6631 24.9824 27.5909C25.2556 27.5271 25.5099 27.4 25.725 27.2199C25.9507 27.0379 26.1333 26.7871 26.271 26.4616C26.4087 26.1361 26.4787 25.7336 26.4787 25.2389V9.27891H28.5203V25.0254C28.5203 25.7837 28.4112 26.4517 28.1937 27.0122C27.9825 27.5722 27.6844 28.0348 27.2982 28.3988C26.9191 28.7698 26.4612 29.0428 25.9227 29.2178C25.3977 29.3998 24.6662 29.4908 24.0182 29.4908M35.4252 23.8517C35.8686 23.8517 36.2804 23.7817 36.659 23.6441C37.0376 23.5064 37.359 23.2982 37.6413 23.0217C37.9178 22.7376 38.1325 22.3847 38.2853 21.9629C38.4452 21.5336 38.5257 21.0313 38.5257 20.4562V19.3752L36.9647 19.4522C36.3096 19.4814 35.7601 19.5543 35.3162 19.6704C34.8722 19.7865 34.5158 19.9504 34.2463 20.1616C33.9916 20.3557 33.7952 20.6163 33.6787 20.9147C33.5621 21.2063 33.5037 21.5371 33.5037 21.9081C33.5037 22.5777 33.6787 23.0747 34.0276 23.3816C34.3776 23.6948 34.8442 23.8512 35.4247 23.8512M57.7512 23.857C58.1945 23.857 58.6063 23.787 58.9849 23.6493C59.3635 23.5117 59.6849 23.3034 59.9672 23.0269C60.2437 22.7428 60.4584 22.3899 60.6112 21.9682C60.7711 21.5388 60.8516 21.0366 60.8516 20.4614V19.3805L59.2906 19.4575C58.6355 19.4867 58.086 19.5596 57.6421 19.6757C57.1982 19.7917 56.8417 19.9557 56.5722 20.1668C56.3175 20.361 56.1211 20.6215 56.0047 20.9199C55.888 21.2116 55.8297 21.5423 55.8297 21.9133C55.8297 22.583 56.0047 23.08 56.3535 23.3868C56.7035 23.7001 57.1702 23.8564 57.7506 23.8564M75.0721 20.9747C75.0721 21.6747 74.9449 22.3135 74.69 22.8741C74.4427 23.4271 74.0857 23.8967 73.6202 24.2822C73.1547 24.6678 72.5865 24.963 71.9168 25.1666C71.2472 25.3632 70.4935 25.4612 69.657 25.4612C68.8491 25.4612 68.0925 25.3952 67.3867 25.2646C66.6878 25.1403 66.1022 24.9554 65.6291 24.7075V22.765L66.4691 23.115L67.4736 23.4096L68.5545 23.6277C68.9218 23.6786 69.2921 23.7043 69.6628 23.7047C70.8272 23.7047 71.6858 23.4866 72.2388 23.0497C72.7988 22.6122 73.0788 21.9868 73.0788 21.1713C73.0788 20.7782 73.024 20.4363 72.9155 20.1447C72.8134 19.853 72.6279 19.5882 72.359 19.3478C72.0965 19.1005 71.7442 18.8637 71.3002 18.6385C70.8569 18.4052 70.2958 18.1543 69.6191 17.8802C68.9774 17.6252 68.4075 17.3552 67.9274 17.0507C67.4607 16.745 67.0612 16.409 66.7491 16.024C66.4414 15.6413 66.208 15.2044 66.0607 14.736C65.9149 14.2559 65.8426 13.7093 65.8426 13.0986C65.8426 12.4581 65.9592 11.887 66.1926 11.3847C66.4259 10.8825 66.7526 10.4602 67.1749 10.1189C67.5972 9.76891 68.0989 9.50407 68.6811 9.32207C69.2632 9.14007 69.9178 9.04907 70.6236 9.04907C71.4898 9.04907 72.2686 9.13249 72.9598 9.29991C73.6511 9.45974 74.2665 9.66741 74.8049 9.92232L74.0734 11.6257C73.6068 11.4145 73.0619 11.2325 72.4576 11.0797C71.8525 10.9185 71.2288 10.8377 70.6026 10.8393C69.7147 10.8393 69.0276 11.047 68.5393 11.4617C68.0517 11.8701 67.8078 12.4225 67.8078 13.1207C67.8078 13.5291 67.8627 13.8966 67.9712 14.2017C68.0803 14.5003 68.2628 14.7733 68.5172 15.0207C68.7721 15.261 69.1005 15.4902 69.5217 15.709C70.0275 15.9584 70.5447 16.1842 71.0716 16.3857C71.7337 16.6482 72.3123 16.9107 72.807 17.1936C73.3087 17.4701 73.7275 17.7769 74.0623 18.1269C74.3954 18.4736 74.6519 18.8864 74.8154 19.3385C74.9904 19.797 75.0826 20.3593 75.0826 20.9858M82.4693 25.4495C81.7343 25.4495 81.046 25.3363 80.4061 25.1112C79.772 24.8824 79.2001 24.5086 78.736 24.0197C78.2693 23.5181 77.8919 22.8811 77.6277 22.1093C77.3582 21.3306 77.224 20.3955 77.224 19.3093C77.224 18.166 77.3623 17.1988 77.6323 16.4055C77.9088 15.6052 78.2874 14.9571 78.7675 14.463C79.2552 13.9613 79.8175 13.5967 80.4708 13.3722C81.1242 13.1476 81.8137 13.0338 82.5557 13.0338C83.1139 13.0329 83.6704 13.0951 84.2147 13.2193C84.7607 13.3436 85.2151 13.4958 85.5797 13.6778L84.9963 15.359C84.8145 15.2804 84.6287 15.2111 84.4398 15.1513C84.2329 15.0766 84.0215 15.0146 83.8069 14.9658C83.5952 14.9088 83.3801 14.865 83.1629 14.8346C82.9518 14.7984 82.7517 14.7797 82.5621 14.7797C81.4188 14.7797 80.5863 15.1472 80.0625 15.8881C79.5387 16.6155 79.2768 17.7512 79.2768 19.2936C79.2768 20.8295 79.5393 21.9536 80.0625 22.667C80.5875 23.367 81.4042 23.7257 82.4752 23.7257C83.0585 23.7257 83.5952 23.6598 84.0688 23.5292C84.5489 23.3909 84.9858 23.2375 85.379 23.0491V24.8177C84.9791 25.0313 84.5535 25.1926 84.1126 25.2978C83.6692 25.4069 83.0935 25.4612 82.446 25.4612M93.2943 13.0385L94.0036 13.0706C94.2306 13.081 94.4567 13.1067 94.6803 13.1476L94.4177 14.9816L93.7848 14.8941C93.5737 14.8649 93.3736 14.8503 93.184 14.8503C92.7255 14.8503 92.3072 14.9448 91.9287 15.1344C91.5495 15.3164 91.2287 15.5818 90.9463 15.9312C90.6768 16.2731 90.4663 16.6884 90.3134 17.1755C90.1676 17.6556 90.0953 18.1905 90.0953 18.7797V25.2418H88.1084V13.2584H89.7243L89.9646 15.4517H90.0521L90.6308 14.5458C90.831 14.2648 91.0658 14.01 91.3296 13.7875C91.5897 13.563 91.8847 13.3823 92.2028 13.2526C92.5237 13.1143 92.9203 13.0449 93.3287 13.0449M38.6674 23.5846H38.5799C38.3396 23.9112 38.0998 24.1959 37.8595 24.4362C37.6256 24.6646 37.3612 24.8593 37.0737 25.0149C36.7897 25.1677 36.4729 25.2803 36.1241 25.3532C35.7752 25.4262 35.3657 25.4623 34.9125 25.4623C34.4108 25.4623 33.9482 25.3888 33.5259 25.2442C33.1157 25.1128 32.7393 24.893 32.4234 24.6002C32.1177 24.3085 31.8774 23.9305 31.703 23.4918C31.528 23.0409 31.4405 22.5095 31.4405 21.8982C31.4405 20.7047 31.8587 19.7877 32.6958 19.1472C33.5399 18.5067 34.8209 18.1572 36.5382 18.0989L38.5467 18.0219V17.2636C38.5467 16.7759 38.4918 16.3682 38.3833 16.0409C38.2812 15.7142 38.1284 15.4576 37.9248 15.2552C37.7282 15.051 37.4815 14.9052 37.1822 14.8177C36.8906 14.7302 36.5563 14.687 36.1777 14.687C35.6032 14.6821 35.0317 14.7706 34.4855 14.9489C33.9687 15.1239 33.4705 15.3339 32.9898 15.5818L32.291 14.0862C32.8294 13.7945 33.4297 13.5477 34.0923 13.3436C34.768 13.1379 35.4708 13.0348 36.1772 13.0379C36.9197 13.0379 37.5597 13.1149 38.0987 13.2672C38.6447 13.413 39.0921 13.6492 39.4415 13.9765C39.7915 14.2973 40.0639 14.708 40.2383 15.2102C40.4127 15.7125 40.5008 16.3203 40.5008 17.0332V25.2424H39.067L38.6674 23.5846ZM42.168 13.2578H44.2202L46.3925 19.9271L46.6766 20.8604L47.0032 22.0177L47.2978 23.1261L47.4833 23.9229H47.5592L47.7447 23.1261L48.0392 22.0177L48.3659 20.8604L48.65 19.9271L50.8223 13.2572H52.8745L48.7807 25.2436H46.2583L42.168 13.2578ZM60.9933 23.5846H60.9058C60.6655 23.9112 60.4258 24.1959 60.1854 24.4362C59.9516 24.6646 59.6871 24.8593 59.3997 25.0149C59.1156 25.1677 58.7988 25.2803 58.45 25.3532C58.1012 25.4262 57.6917 25.4623 57.2384 25.4623C56.7367 25.4623 56.2742 25.3888 55.8518 25.2442C55.4416 25.1128 55.0652 24.893 54.7493 24.6002C54.4437 24.3085 54.2033 23.9305 54.0289 23.4918C53.8539 23.0409 53.7664 22.5095 53.7664 21.8982C53.7664 20.7047 54.1847 19.7877 55.0217 19.1472C55.8658 18.5067 57.1468 18.1572 58.8642 18.0989L60.8726 18.0219V17.2636C60.8726 16.7759 60.8177 16.3682 60.7092 16.0409C60.6072 15.7142 60.4543 15.4576 60.2508 15.2552C60.0542 15.051 59.8074 14.9052 59.5082 14.8177C59.2165 14.7302 58.8822 14.687 58.5037 14.687C57.9291 14.6821 57.3576 14.7706 56.8114 14.9489C56.2946 15.1239 55.7964 15.3339 55.3157 15.5818L54.6169 14.0862C55.1553 13.7945 55.7556 13.5477 56.4182 13.3436C57.094 13.1379 57.7968 13.0348 58.5031 13.0379C59.2457 13.0379 59.8856 13.1149 60.4246 13.2672C60.9706 13.413 61.418 13.6492 61.7674 13.9765C62.1174 14.2973 62.3898 14.708 62.5642 15.2102C62.7387 15.7125 62.8268 16.3203 62.8268 17.0332V25.2424H61.3976L60.9933 23.5846Z" stroke="white" stroke-width="1.24192"/>
<path d="M98.8791 25.2435H96.8917V13.2571H98.8785V25.2435M97.0667 9.05948C97.2924 8.86289 97.5683 8.76489 97.8962 8.76489C98.056 8.76489 98.2053 8.78998 98.3436 8.84189C98.4836 8.88236 98.6112 8.95738 98.7146 9.06006C98.8237 9.16214 98.9071 9.29339 98.9654 9.45323C99.0307 9.60606 99.0634 9.79156 99.0634 10.0097C99.0634 10.4321 98.9467 10.7482 98.7134 10.9594C98.4877 11.1636 98.2147 11.2651 97.8944 11.2651C97.5677 11.2651 97.2819 11.1116 97.0562 10.9081C96.838 10.7039 96.7353 10.3877 96.7353 9.98348C96.7365 9.57223 96.8462 9.25606 97.0643 9.05948H97.0667Z" fill="white"/>
<path d="M98.8791 25.2435H96.8917V13.2571H98.8785V25.2435M97.0667 9.05948C97.2924 8.86289 97.5683 8.76489 97.8962 8.76489C98.056 8.76489 98.2053 8.78998 98.3436 8.84189C98.4836 8.88236 98.6112 8.95738 98.7146 9.06006C98.8237 9.16214 98.9071 9.29339 98.9654 9.45323C99.0307 9.60606 99.0634 9.79156 99.0634 10.0097C99.0634 10.4321 98.9467 10.7482 98.7134 10.9594C98.4877 11.1636 98.2147 11.2651 97.8944 11.2651C97.5677 11.2651 97.2819 11.1116 97.0562 10.9081C96.838 10.7039 96.7353 10.3877 96.7353 9.98348C96.7365 9.57223 96.8462 9.25606 97.0643 9.05948H97.0667Z" stroke="white" stroke-width="1.24192" stroke-linecap="square"/>
<path d="M107.99 25.4618C107.561 25.4618 107.171 25.4151 106.822 25.32C106.474 25.225 106.156 25.1019 105.873 24.949C105.596 24.7892 105.349 24.6031 105.13 24.392C104.923 24.1858 104.733 23.9632 104.563 23.7264H104.431L104.497 24.4357L104.54 25.019L104.562 25.4886V30.6085H102.575V13.2573H104.191L104.475 14.8731H104.563C104.729 14.6195 104.919 14.382 105.13 14.1638C105.344 13.9359 105.591 13.7409 105.862 13.5851C106.146 13.4177 106.462 13.2865 106.811 13.192C107.161 13.0899 107.554 13.0391 107.99 13.0391C108.674 13.0391 109.296 13.1704 109.856 13.4323C110.424 13.7001 110.915 14.1054 111.286 14.6112C111.686 15.128 111.995 15.7779 112.219 16.5432C112.443 17.3085 112.546 18.2098 112.546 19.2289C112.546 20.2555 112.437 21.1574 112.219 21.9355C112.001 22.7067 111.691 23.3548 111.286 23.878C110.893 24.4019 110.411 24.7985 109.857 25.068C109.297 25.3305 108.536 25.4612 107.853 25.4612M107.608 14.687C107.055 14.687 106.585 14.7705 106.199 14.9379C105.825 15.1017 105.504 15.3663 105.271 15.702C105.038 16.0439 104.863 16.4697 104.747 16.9854C104.638 17.4946 104.577 18.0949 104.562 18.7867V19.2341C104.562 19.9691 104.609 20.6242 104.704 21.1988C104.806 21.7664 104.973 22.247 105.205 22.6396C105.435 23.0157 105.764 23.3216 106.155 23.524C106.548 23.7205 107.039 23.8185 107.629 23.8185C108.611 23.8185 109.332 23.4219 109.79 22.6285C110.255 21.8352 110.489 20.6965 110.489 19.212C110.489 17.6982 110.255 16.5665 109.79 15.817C109.331 15.0674 108.603 14.6929 107.606 14.6929M119.175 23.8355C119.306 23.8355 119.452 23.8238 119.613 23.8133L120.093 23.7585L120.501 23.6815L120.796 23.6045V25.1112C120.701 25.155 120.581 25.1987 120.435 25.2425C120.289 25.2862 120.129 25.3218 119.955 25.3515C119.775 25.3885 119.592 25.4142 119.409 25.4285C119.224 25.4502 119.038 25.4609 118.852 25.4606C118.428 25.4642 118.005 25.4052 117.597 25.2856C117.217 25.1727 116.872 24.9663 116.593 24.6854C116.316 24.4013 116.098 24.0204 115.938 23.5391C115.778 23.0515 115.697 22.4401 115.697 21.7051V14.7518H114.006V13.8675L115.697 13.0158L116.549 10.5051H117.695V13.2561H120.708V14.7518H117.695V21.7051C117.695 22.4051 117.808 22.9418 118.033 23.2988C118.267 23.6488 118.645 23.8337 119.169 23.8337" fill="white"/>
<path d="M107.99 25.4618C107.561 25.4618 107.171 25.4151 106.822 25.32C106.474 25.225 106.156 25.1019 105.873 24.949C105.596 24.7892 105.349 24.6031 105.13 24.392C104.923 24.1858 104.733 23.9632 104.563 23.7264H104.431L104.497 24.4357L104.54 25.019L104.562 25.4886V30.6085H102.575V13.2573H104.191L104.475 14.8731H104.563C104.729 14.6195 104.919 14.382 105.13 14.1638C105.344 13.9359 105.591 13.7409 105.862 13.5851C106.146 13.4177 106.462 13.2865 106.811 13.192C107.161 13.0899 107.554 13.0391 107.99 13.0391C108.674 13.0391 109.296 13.1704 109.856 13.4323C110.424 13.7001 110.915 14.1054 111.286 14.6112C111.686 15.128 111.995 15.7779 112.219 16.5432C112.443 17.3085 112.546 18.2098 112.546 19.2289C112.546 20.2555 112.437 21.1574 112.219 21.9355C112.001 22.7067 111.691 23.3548 111.286 23.878C110.893 24.4019 110.411 24.7985 109.857 25.068C109.297 25.3305 108.536 25.4612 107.853 25.4612M107.608 14.687C107.055 14.687 106.585 14.7705 106.199 14.9379C105.825 15.1017 105.504 15.3663 105.271 15.702C105.038 16.0439 104.863 16.4697 104.747 16.9854C104.638 17.4946 104.577 18.0949 104.562 18.7867V19.2341C104.562 19.9691 104.609 20.6242 104.704 21.1988C104.806 21.7664 104.973 22.247 105.205 22.6396C105.435 23.0157 105.764 23.3216 106.155 23.524C106.548 23.7205 107.039 23.8185 107.629 23.8185C108.611 23.8185 109.332 23.4219 109.79 22.6285C110.255 21.8352 110.489 20.6965 110.489 19.212C110.489 17.6982 110.255 16.5665 109.79 15.817C109.331 15.0674 108.603 14.6929 107.606 14.6929M119.175 23.8355C119.306 23.8355 119.452 23.8238 119.613 23.8133L120.093 23.7585L120.501 23.6815L120.796 23.6045V25.1112C120.701 25.155 120.581 25.1987 120.435 25.2425C120.289 25.2862 120.129 25.3218 119.955 25.3515C119.775 25.3885 119.592 25.4142 119.409 25.4285C119.224 25.4502 119.038 25.4609 118.852 25.4606C118.428 25.4642 118.005 25.4052 117.597 25.2856C117.217 25.1727 116.872 24.9663 116.593 24.6854C116.316 24.4013 116.098 24.0204 115.938 23.5391C115.778 23.0515 115.697 22.4401 115.697 21.7051V14.7518H114.006V13.8675L115.697 13.0158L116.549 10.5051H117.695V13.2561H120.708V14.7518H117.695V21.7051C117.695 22.4051 117.808 22.9418 118.033 23.2988C118.267 23.6488 118.645 23.8337 119.169 23.8337" stroke="white" stroke-width="1.24192"/>
</svg>
