<svg width="151" height="20" viewBox="0 0 151 20" fill="none" xmlns="http://www.w3.org/2000/svg">
<path d="M15.6037 0.902344C11.4418 0.902344 8.84766 2.99983 7.81543 7.15587C9.37733 5.06428 11.207 4.29394 13.2715 4.82362C14.4512 5.11854 15.3088 5.97618 16.2478 6.94824C17.7826 8.51015 19.5521 10.3127 23.4192 10.3127C27.5752 10.3127 30.1693 8.21522 31.2016 4.05919C29.6396 6.15077 27.8099 6.92111 25.7455 6.39143C24.5658 6.09651 23.7141 5.23887 22.7691 4.26681C21.2344 2.7049 19.4648 0.902344 15.6037 0.902344ZM7.7883 10.2525C3.62636 10.2525 1.03223 12.3441 0 16.5049C1.56191 14.4086 3.3916 13.6441 5.45605 14.1738C6.63574 14.4687 7.49337 15.3264 8.43241 16.2984C9.96718 17.8603 11.7367 19.6629 15.6037 19.6629C19.7598 19.6629 22.3539 17.5654 23.3861 13.4094C21.8242 15.501 19.9945 16.2713 17.9301 15.7357C16.7504 15.4408 15.8986 14.5891 14.9537 13.617C13.4461 12.0492 11.6765 10.2525 7.7883 10.2525Z" fill="url(#paint0_linear_4_424)"/>
<path d="M46.8053 8.77809H44.0908V14.0595C44.0908 15.474 45.0027 15.441 46.8041 15.3537V17.4783C43.1471 17.9207 41.7043 16.9156 41.7043 14.0595V8.77809H39.6941V6.50602H41.7043V3.5568L44.0637 2.85253V6.50602H46.7723V8.77809H46.8053ZM57.1865 6.50602H59.5459V17.4783H57.1865V15.8834C56.3572 17.0359 55.0631 17.7461 53.3526 17.7461C50.3715 17.7461 47.8977 15.2062 47.8977 11.9621C47.8977 8.69079 50.3715 6.18396 53.3537 6.18396C55.0631 6.18396 56.3572 6.88823 57.1877 8.04079L57.1865 6.50602ZM53.7029 15.5011C55.6801 15.5011 57.1877 14.0265 57.1877 11.9951C57.1877 9.95778 55.6801 8.48317 53.7029 8.48317C51.7317 8.48317 50.224 9.95778 50.224 11.9951C50.2571 14.0265 51.7305 15.5011 53.7029 15.5011ZM63.4955 4.85681C62.6709 4.85681 61.9938 4.14664 61.9938 3.34917C61.9938 2.52457 62.6709 1.84743 63.4955 1.84743C64.3213 1.84743 65.0032 2.52457 65.0032 3.34917C65.0303 4.14664 64.3201 4.85681 63.4955 4.85681ZM62.3158 17.4783V6.5072H64.6752V17.4783H62.3158ZM67.4168 17.4783V1.46521H69.7762V17.4783H67.4168ZM85.2053 6.5072H87.7121L84.2604 17.4783H81.9281L79.6561 10.0781L77.3568 17.4783H75.0305L71.5787 6.5072H74.0844L76.2078 14.0867L78.5082 6.50602H80.7803L83.0465 14.0867L85.2053 6.5072ZM90.6283 4.85563C89.8037 4.85563 89.1266 4.14782 89.1266 3.34917C89.1266 2.52457 89.8037 1.84743 90.6283 1.84743C91.4541 1.84743 92.136 2.52457 92.136 3.34917C92.1631 4.14664 91.486 4.85563 90.6283 4.85563ZM89.4486 17.4783V6.5072H91.808V17.4783H89.4486ZM100.334 6.21227C102.78 6.21227 104.55 7.89333 104.55 10.7222V17.4783H102.19V10.99C102.19 9.30777 101.218 8.45604 99.7438 8.45604C98.1819 8.45604 96.942 9.36794 96.942 11.607V17.5054H94.5826V6.53905H96.942V7.95349C97.6793 6.7738 98.859 6.21227 100.334 6.21227ZM115.817 2.11522H118.176V17.4783H115.817V15.8834C114.991 17.0359 113.692 17.7461 111.983 17.7461C109.001 17.7461 106.527 15.2062 106.527 11.9621C106.527 8.69079 109.001 6.18396 111.983 6.18396C113.692 6.18396 114.991 6.88823 115.817 8.04079V2.11522ZM112.337 15.5011C114.309 15.5011 115.817 14.0265 115.817 11.9951C115.817 9.95778 114.309 8.48317 112.337 8.48317C110.361 8.48317 108.853 9.95778 108.853 11.9951C108.853 14.0265 110.36 15.5011 112.337 15.5011ZM126.106 17.7732C122.808 17.7732 120.301 15.2392 120.301 11.9951C120.301 8.71793 122.775 6.21109 126.106 6.21109C128.264 6.21109 130.121 7.3318 131.005 9.04588L128.968 10.2256C128.499 9.19334 127.406 8.54333 126.079 8.54333C124.135 8.54333 122.688 10.0179 122.688 11.9951C122.688 13.9664 124.162 15.441 126.079 15.441C127.406 15.441 128.466 14.7638 129.001 13.7646L131.033 14.9113C130.148 16.6537 128.264 17.7732 126.106 17.7732ZM134.987 9.5154C134.987 11.5209 140.885 10.3129 140.885 14.3816C140.885 16.5664 138.968 17.7732 136.609 17.7732C134.424 17.7732 132.834 16.7681 132.125 15.2062L134.162 14.0265C134.512 15.0316 135.396 15.6215 136.609 15.6215C137.668 15.6215 138.466 15.2664 138.466 14.3816C138.466 12.4375 132.567 13.524 132.567 9.60388C132.567 7.53942 134.337 6.24413 136.576 6.24413C138.379 6.24413 139.88 7.06872 140.651 8.5103L138.64 9.63573C138.258 8.77809 137.494 8.39587 136.576 8.39587C135.724 8.36284 134.987 8.74978 134.987 9.5154ZM145.102 9.5154C145.102 11.5209 151 10.3129 151 14.3816C151 16.5664 149.083 17.7732 146.724 17.7732C144.539 17.7732 142.949 16.7681 142.241 15.2062L144.277 14.0265C144.631 15.0316 145.516 15.6215 146.724 15.6215C147.783 15.6215 148.58 15.2664 148.58 14.3816C148.58 12.4375 142.682 13.524 142.682 9.60388C142.682 7.53942 144.452 6.24413 146.696 6.24413C148.493 6.24413 149.995 7.06872 150.765 8.5103L148.76 9.63573C148.373 8.77809 147.608 8.39587 146.695 8.39587C145.839 8.36284 145.102 8.74978 145.102 9.5154Z" fill="white"/>
<defs>
<linearGradient id="paint0_linear_4_424" x1="-0.834837" y1="6.84984" x2="26.1238" y2="22.3935" gradientUnits="userSpaceOnUse">
<stop stop-color="#2298BD"/>
<stop offset="1" stop-color="#0ED7B5"/>
</linearGradient>
</defs>
</svg>
