<svg width="96" height="49" viewBox="0 0 96 49" fill="none" xmlns="http://www.w3.org/2000/svg">
<g clip-path="url(#clip0_4_395)">
<path d="M0 44.5105H3.16266V32.2449L8.05875 42.9415C8.63625 44.231 9.4275 44.6943 10.9781 44.6943C12.5288 44.6943 13.2891 44.236 13.8675 42.9415L18.7641 32.2449V44.5151H21.9272V32.2651C21.9272 31.0701 21.4397 30.4921 20.4366 30.1937C18.0342 29.4568 16.4222 30.0942 15.6928 31.6876L10.8881 42.2443L6.23438 31.683C5.535 30.0896 3.89297 29.4522 1.49063 30.1891C0.486563 30.4879 0 31.0659 0 32.2605V44.5105ZM24.5559 34.5235H27.7177V41.2841C27.6881 41.6516 27.8377 42.5137 29.5702 42.5399C30.4542 42.5537 36.3923 42.5399 36.4477 42.5399V34.4899H39.6164C39.6305 34.4899 39.6131 45.4661 39.6136 45.5131C39.6309 48.2201 36.1945 48.8081 34.6111 48.8537H24.6248V46.7629L34.6289 46.7625C36.6642 46.5506 36.4242 45.5573 36.4242 45.2225V44.4074H29.7023C26.5748 44.3797 24.5836 43.0382 24.5588 41.4955C24.5564 41.3573 24.6262 34.5899 24.5569 34.5231L24.5559 34.5235Z" fill="white"/>
<path d="M42.0544 44.5105H51.1472C52.2113 44.5105 53.2458 44.2918 54.0675 43.9128C55.4363 43.2957 56.1052 42.4589 56.1052 41.3633V39.0929C56.1052 38.1963 55.3448 37.3599 53.8552 36.8022C53.0644 36.5029 52.0913 36.344 51.1486 36.344H47.3166C46.0397 36.344 45.4313 35.9655 45.2794 35.1291C45.2489 35.0297 45.2489 34.9449 45.2489 34.8501V33.4363C45.2489 33.3566 45.2489 33.2764 45.2794 33.177C45.4313 32.5396 45.7659 32.36 46.8909 32.2559C46.9823 32.2559 47.1038 32.2357 47.1956 32.2357H56.2275V30.1647H47.3475C46.0702 30.1647 45.4013 30.2443 44.7928 30.4235C42.9056 31.0015 42.0844 31.9225 42.0844 33.5159V35.3286C42.0844 36.723 43.6969 37.9181 46.4025 38.1967C46.7072 38.2165 47.0109 38.2363 47.3147 38.2363H50.5992C50.7211 38.2363 50.843 38.2363 50.9339 38.2566C51.937 38.3363 52.3636 38.5154 52.6674 38.8737C52.8549 39.0579 52.9111 39.2329 52.9111 39.4263V41.239C52.9111 41.4582 52.7592 41.7372 52.455 41.9758C52.1813 42.2153 51.7252 42.3741 51.1167 42.4142C50.9949 42.4142 50.9039 42.434 50.7825 42.434H42.0544V44.5055V44.5105ZM75.8344 40.9055C75.8344 43.0368 77.4459 44.2319 80.7 44.4709C81.0035 44.494 81.3078 44.5072 81.6122 44.5105H89.8538V42.4391H81.5513C79.6964 42.4391 78.9966 41.9809 78.9966 40.8853V30.1688H75.8339V40.9046L75.8344 40.9055ZM58.1227 41.0133V33.6288C58.1227 31.7526 59.4633 30.6146 62.1145 30.2554C62.3973 30.2157 62.6825 30.1957 62.9681 30.1955H68.9714C69.2671 30.1957 69.5625 30.2157 69.8555 30.2554C72.5067 30.6146 73.8473 31.7521 73.8473 33.6288V41.0133C73.8473 42.5353 73.2778 43.35 71.9653 43.881L75.0806 46.6441H71.4084L68.888 44.4088L66.3506 44.5667H62.9681C62.3892 44.5667 61.7798 44.4866 61.1091 44.307C59.0934 43.7682 58.1227 42.7301 58.1227 41.0133ZM61.5366 40.8291C61.5366 40.929 61.567 41.0285 61.5975 41.1487C61.785 42.0071 62.603 42.4861 63.8475 42.4861H66.7209L64.0819 40.1452H67.7541L70.0509 42.1867C70.4752 41.9647 70.7541 41.6249 70.8478 41.1888C70.8783 41.0893 70.8783 40.9893 70.8783 40.8894V33.8088C70.8783 33.7291 70.8783 33.6246 70.8478 33.5293C70.6603 32.7312 69.8419 32.272 68.6231 32.272H63.8531C62.4469 32.272 61.5375 32.8707 61.5375 33.8088V40.8346L61.5366 40.8291Z" fill="#E48E00"/>
<path d="M92.6363 26.7324C90.6923 26.6809 89.2069 26.8582 87.9375 27.3841C87.5766 27.5338 87.0014 27.5374 86.9424 27.9819C87.1406 28.1859 87.172 28.4907 87.3291 28.7417C87.6323 29.2239 88.1447 29.87 88.6008 30.208C89.0995 30.5778 89.6133 30.9739 90.1491 31.2949C91.1006 31.865 92.1628 32.1906 93.0788 32.7612C93.6188 33.0974 94.155 33.5211 94.6819 33.9015C94.942 34.0894 95.1178 34.3813 95.4553 34.4988V34.4444C95.2772 34.222 95.2317 33.9162 95.0686 33.6846L94.35 32.9786C93.6469 32.0575 92.7553 31.2576 91.807 30.5884C91.0509 30.0551 89.3583 29.3349 89.0428 28.47L88.9875 28.4157C89.5238 28.3558 90.1514 28.1656 90.6469 28.0357C91.478 27.817 92.2209 27.8732 93.0797 27.6558L94.2408 27.3298V27.1124C93.8067 26.6749 93.4973 26.096 93.0244 25.7004C91.7869 24.6642 90.4355 23.6303 89.0447 22.7669C88.2731 22.2879 87.3197 21.9775 86.5017 21.5718C86.2266 21.4355 85.7433 21.3646 85.5619 21.1371C85.1325 20.5992 84.8986 19.9167 84.5672 19.295C83.8734 17.9825 83.1919 16.5484 82.5769 15.1673C82.1573 14.2255 81.8831 13.2966 81.3609 12.4515C78.8508 8.39705 76.1484 5.94982 71.9634 3.54495C71.0728 3.03377 70.0008 2.83113 68.8674 2.56725L67.043 2.45857C66.6717 2.30659 66.2855 1.85988 65.9367 1.64344C64.5502 0.782253 60.9938 -1.08887 59.9667 1.36712C59.3184 2.92048 60.9356 4.43607 61.5145 5.22357C61.9205 5.7762 62.4408 6.39469 62.7305 7.01594C62.9213 7.42396 62.9545 7.83337 63.1177 8.26534C63.5194 9.32455 63.8691 10.4865 64.3889 11.4697C64.6514 11.9671 64.9411 12.4911 65.2734 12.936C65.4773 13.2091 65.8266 13.3293 65.8814 13.7511C65.5402 14.2209 65.5205 14.9485 65.3283 15.5435C64.4644 18.2201 64.7902 21.5465 66.0469 23.5276C66.4327 24.1355 67.3406 25.4398 68.5898 24.9396C69.682 24.5021 69.4336 23.1482 69.7509 21.9526C69.8213 21.6809 69.7781 21.4829 69.9169 21.301V21.3553L70.912 23.3103C71.648 24.4754 72.9558 25.6935 74.063 26.5155C74.6372 26.9415 75.0942 27.6784 75.832 27.9275V27.8732H75.7767C75.6328 27.6521 75.4078 27.5614 75.2236 27.385C74.7909 26.9682 74.3095 26.4501 73.9519 25.973C72.9441 24.6292 72.0544 23.1592 71.2434 21.628C70.8563 20.8971 70.5192 20.0907 70.1934 19.347C70.0678 19.0601 70.0692 18.6267 69.8067 18.478C69.4491 19.0232 68.9222 19.4635 68.6456 20.1073C68.2031 21.1361 68.1459 22.3906 67.9824 23.6921C67.8853 23.7261 67.9284 23.7026 67.8717 23.7464C67.102 23.564 66.8311 22.7853 66.5452 22.1171C65.8214 20.4269 65.6873 17.7071 66.3239 15.7627C66.488 15.2598 67.2333 13.6747 66.9319 13.21C66.788 12.7463 66.3131 12.4732 66.0473 12.1232C65.7192 11.6857 65.3902 11.1082 65.1628 10.6025C64.5703 9.28541 64.2938 7.80712 63.6703 6.47482C63.3722 5.83837 62.8688 5.19455 62.4544 4.63271C61.9959 4.0064 61.4827 3.54403 61.1278 2.79061C61.0013 2.5212 60.8297 2.09061 61.0172 1.81291C61.0351 1.73312 61.0759 1.66003 61.1347 1.60226C61.1935 1.54449 61.2679 1.50445 61.3491 1.48686C61.6697 1.24416 62.5631 1.56745 62.8969 1.70423C63.7828 2.0662 64.5234 2.41067 65.2744 2.89929C65.6353 3.12956 65.9995 3.58824 66.435 3.71442H66.9319C67.71 3.89034 68.5819 3.76969 69.3084 3.98613C70.5938 4.36975 71.745 4.96706 72.7913 5.61548C75.9778 7.59205 78.5827 10.4059 80.3649 13.7668C80.6517 14.307 80.7755 14.8232 81.0281 15.3961C81.5377 16.5474 82.1794 17.7416 82.6866 18.8717C83.1928 20 83.685 21.1375 84.4003 22.0761C84.7763 22.5688 86.2284 22.8341 86.888 23.1076C87.3506 23.2997 88.1081 23.5 88.5464 23.7593C89.3831 24.2553 90.1941 24.8461 90.9792 25.3896C91.3716 25.6613 92.5777 26.2567 92.6377 26.7472L92.6363 26.7324Z" fill="white"/>
<path fill-rule="evenodd" clip-rule="evenodd" d="M67.9266 6.04011C67.5211 6.03274 67.2347 6.0834 66.9314 6.14879V6.20313H66.9867C67.1798 6.59366 67.5211 6.84465 67.7601 7.18083L68.3133 8.32109L68.3686 8.26675C68.7108 8.02958 68.8678 7.65057 68.8655 7.07168C68.7281 6.92984 68.708 6.75208 68.5889 6.58261C68.4309 6.35695 68.1201 6.22892 67.9256 6.03918L67.9266 6.04011Z" fill="white"/>
<path fill-rule="evenodd" clip-rule="evenodd" d="M91.3383 42.3802C91.3383 43.748 92.4384 44.6699 93.6689 44.6699C94.8994 44.6699 95.9995 43.748 95.9995 42.3802C95.9995 41.0124 94.8994 40.0905 93.6689 40.0905C92.4384 40.0905 91.3383 41.0124 91.3383 42.3802ZM95.4773 42.3802C95.4773 43.4182 94.6697 44.1937 93.6679 44.1937C92.6554 44.1937 91.8586 43.4182 91.8586 42.3802C91.8586 41.3422 92.6545 40.5666 93.6679 40.5666C94.6687 40.5666 95.4773 41.3422 95.4773 42.3802ZM94.2961 43.6872H94.8178L94.0537 42.5395C94.4639 42.4967 94.7742 42.301 94.7742 41.8248C94.7742 41.2933 94.432 41.0741 93.7739 41.0741H92.7356V43.6876H93.1833V42.558H93.5995L94.2956 43.6876L94.2961 43.6872ZM93.1833 42.1905V41.4398H93.6989C93.9661 41.4398 94.2895 41.4886 94.2895 41.7944C94.2895 42.1605 93.9975 42.1914 93.6614 42.1914H93.1833V42.1905Z" fill="#E48E00"/>
</g>
<defs>
<clipPath id="clip0_4_395">
<rect width="96" height="49" fill="white"/>
</clipPath>
</defs>
</svg>
