<svg width="30" height="30" viewBox="0 0 30 30" fill="none" xmlns="http://www.w3.org/2000/svg">
<g clip-path="url(#clip0_4_284)">
<path d="M5.3125 2.35759e-06H24.6875C25.3853 -0.000655355 26.0764 0.136308 26.7213 0.403053C27.3661 0.669798 27.952 1.06109 28.4455 1.55453C28.9389 2.04797 29.3302 2.63388 29.597 3.27872C29.8637 3.92356 30.0007 4.61467 30 5.3125V23.9375C30.0007 24.6353 29.8637 25.3264 29.597 25.9713C29.3302 26.6161 28.9389 27.202 28.4455 27.6955C27.952 28.1889 27.3661 28.5802 26.7213 28.847C26.0764 29.1137 25.3853 29.2507 24.6875 29.25H5.3125C4.61467 29.2507 3.92356 29.1137 3.27872 28.847C2.63388 28.5802 2.04797 28.1889 1.55453 27.6955C1.06109 27.202 0.669798 26.6161 0.403053 25.9713C0.136308 25.3264 -0.000655355 24.6353 2.35759e-06 23.9375V5.3125C-0.000655355 4.61467 0.136308 3.92356 0.403053 3.27872C0.669798 2.63388 1.06109 2.04797 1.55453 1.55453C2.04797 1.06109 2.63388 0.669798 3.27872 0.403053C3.92356 0.136308 4.61467 -0.000655355 5.3125 2.35759e-06Z" fill="white"/>
<path d="M15.775 7.68752L12.025 13.875L16.025 20.4375C16.0513 20.4828 16.0602 20.5361 16.05 20.5875C16.0375 20.6375 15.9875 20.6 15.9125 20.6125H13.05C12.85 20.6125 12.7125 20.6 12.625 20.475C12.3625 19.95 12.0875 19.4375 11.825 18.9125C11.5625 18.3875 11.275 17.875 10.975 17.3375C10.675 16.8 10.375 16.2625 10.075 15.7125H10.05C9.78751 16.25 9.50001 16.7875 9.21251 17.325C8.92501 17.8625 8.63751 18.4 8.36251 18.925C8.08751 19.45 7.78751 19.9875 7.50001 20.5C7.45001 20.625 7.35001 20.6375 7.21251 20.6375H4.46251C4.41251 20.6375 4.37501 20.6625 4.37501 20.6C4.36943 20.5766 4.36877 20.5523 4.37307 20.5286C4.37738 20.505 4.38655 20.4825 4.40001 20.4625L8.28751 14.0875L4.50001 7.67502C4.46251 7.62502 4.45001 7.57502 4.47501 7.55002C4.49025 7.5322 4.50958 7.51834 4.53135 7.50963C4.55312 7.50092 4.57668 7.49762 4.60001 7.50002H7.43751C7.49663 7.5013 7.55539 7.5097 7.61251 7.52502C7.66258 7.55196 7.70545 7.59055 7.73751 7.63752C7.97501 8.17502 8.25001 8.71252 8.53751 9.25002C8.82501 9.78752 9.12501 10.3125 9.43751 10.8375C9.75001 11.3625 10.0125 11.8875 10.275 12.425H10.3C10.5625 11.875 10.8375 11.3375 11.1125 10.8125C11.3875 10.2875 11.675 9.76252 11.9625 9.23752C12.25 8.71252 12.525 8.17502 12.8 7.66252C12.8095 7.61331 12.8361 7.56904 12.875 7.53752C12.9245 7.51021 12.9821 7.50135 13.0375 7.51252H15.675C15.6898 7.5092 15.7051 7.50883 15.72 7.51144C15.7349 7.51405 15.7492 7.51957 15.7619 7.5277C15.7747 7.53583 15.7858 7.54641 15.7944 7.55882C15.8031 7.57122 15.8093 7.58523 15.8125 7.60002C15.825 7.61252 15.8 7.66252 15.775 7.68752ZM21.55 20.875C20.6234 20.8902 19.7052 20.698 18.8625 20.3125C18.0785 19.9459 17.4214 19.3541 16.975 18.6125C16.5125 17.85 16.2875 16.9 16.2875 15.7625C16.2748 14.8375 16.5124 13.9262 16.975 13.125C17.4494 12.3108 18.1364 11.641 18.9625 11.1875C19.8375 10.7 20.8875 10.4625 22.125 10.4625C22.2127 10.4615 22.3003 10.4657 22.3875 10.475C22.5 10.4875 22.625 10.4875 22.775 10.5V6.55002C22.775 6.46252 22.8125 6.41252 22.9 6.41252H25.4375C25.4655 6.40872 25.4939 6.41562 25.5171 6.43184C25.5403 6.44805 25.5565 6.47239 25.5625 6.50002V18.425C25.5625 18.65 25.575 18.9 25.5875 19.175C25.6 19.45 25.625 19.6875 25.6375 19.9C25.6402 19.9422 25.6295 19.9842 25.6071 20.0201C25.5847 20.056 25.5516 20.0839 25.5125 20.1C24.8578 20.3752 24.1744 20.5764 23.475 20.7C22.8397 20.8146 22.1956 20.8731 21.55 20.875ZM22.775 18.375V12.875C22.6637 12.8482 22.551 12.8273 22.4375 12.8125C22.3 12.8 22.1625 12.7875 22.025 12.7875C21.535 12.782 21.0508 12.8934 20.6125 13.1125C20.1854 13.3254 19.8196 13.6437 19.55 14.0375C19.275 14.4375 19.1375 14.975 19.1375 15.625C19.1266 16.0637 19.1987 16.5006 19.35 16.9125C19.4709 17.2457 19.6628 17.5485 19.9125 17.8C20.1535 18.03 20.4444 18.2011 20.7625 18.3C21.0973 18.4097 21.4477 18.4646 21.8 18.4625C21.9875 18.4625 22.1625 18.45 22.325 18.4375C22.4777 18.4484 22.631 18.4271 22.775 18.375Z" fill="#470137"/>
</g>
<defs>
<clipPath id="clip0_4_284">
<rect width="30" height="29.25" fill="white"/>
</clipPath>
</defs>
</svg>
