<?xml version="1.0" encoding="utf-8"?>
<!-- Generator: Adobe Illustrator 26.5.0, SVG Export Plug-In . SVG Version: 6.00 Build 0)  -->
<svg version="1.1"
	 id="svg2" xmlns:inkscape="http://www.inkscape.org/namespaces/inkscape" xmlns:dc="http://purl.org/dc/elements/1.1/" xmlns:rdf="http://www.w3.org/1999/02/22-rdf-syntax-ns#" xmlns:cc="http://creativecommons.org/ns#" xmlns:sodipodi="http://sodipodi.sourceforge.net/DTD/sodipodi-0.dtd" xmlns:svg="http://www.w3.org/2000/svg" inkscape:version="0.48.3.1 r9886"
	 xmlns="http://www.w3.org/2000/svg" xmlns:xlink="http://www.w3.org/1999/xlink" x="0px" y="0px" viewBox="0 0 362.7 411.4"
	 style="enable-background:new 0 0 362.7 411.4;" xml:space="preserve">
<style type="text/css">
	.st0{fill:#264DE4;}
	.st1{fill:#2965F1;}
	.st2{fill:#EBEBEB;}
	.st3{fill:#FFFFFF;}
</style>
<sodipodi:namedview  bordercolor="#666666" borderopacity="1.0" fit-margin-bottom="0" fit-margin-left="0" fit-margin-right="0" fit-margin-top="0" id="base" inkscape:current-layer="layer1" inkscape:cx="-276.49014" inkscape:cy="244.10462" inkscape:document-units="px" inkscape:pageopacity="0.0" inkscape:pageshadow="2" inkscape:window-height="938" inkscape:window-maximized="1" inkscape:window-width="1280" inkscape:window-x="0" inkscape:window-y="31" inkscape:zoom="0.35" pagecolor="#ffffff" showgrid="false">
	</sodipodi:namedview>
<g id="g3013" transform="translate(95.428571,270.18109)">
	<polygon id="polygon2989" class="st0" points="85.7,141.2 -62.4,100.1 -95.4,-270.2 267.3,-270.2 234.3,100 	"/>
	<polygon id="polygon2991" class="st1" points="206,76.5 234.2,-239.9 85.9,-239.9 85.9,109.7 	"/>
	<polygon id="polygon2993" class="st2" points="-19.8,-102.6 -15.7,-57.2 85.9,-57.2 85.9,-102.6 	"/>
	<polygon id="polygon2995" class="st2" points="-27.9,-194.5 -23.8,-149.1 85.9,-149.1 85.9,-194.5 85.8,-194.5 	"/>
	<polygon id="polygon2997" class="st2" points="85.9,15.4 85.7,15.4 35.2,1.8 31.9,-34.4 7.4,-34.4 -13.7,-34.4 -7.3,36.9 
		85.7,62.7 85.9,62.6 	"/>
	<path id="path2999" inkscape:connector-curvature="0" d="M-10.1-370.8h55v23h-32v23h32v23h-55C-10.1-301.8-10.1-370.8-10.1-370.8z"
		/>
	<path id="path3001" inkscape:connector-curvature="0" d="M55.9-370.8h55v20h-32v4h32v46h-55v-21h32v-4h-32V-370.8z"/>
	<path id="path3003" inkscape:connector-curvature="0" d="M121.9-370.8h55v20h-32v4h32v46h-55v-21h32v-4h-32
		C121.9-325.8,121.9-370.8,121.9-370.8z"/>
	<polygon id="polygon3005" class="st3" points="191.3,-102.6 199.5,-194.5 85.8,-194.5 85.8,-149.1 149.8,-149.1 145.6,-102.6 
		85.8,-102.6 85.8,-57.2 141.7,-57.2 136.4,1.7 85.8,15.4 85.8,62.7 178.9,36.9 179.6,29.2 190.2,-90.4 	"/>
</g>
</svg>
