<?xml version="1.0" encoding="utf-8"?>
<!-- Generator: Adobe Illustrator 26.5.0, SVG Export Plug-In . SVG Version: 6.00 Build 0)  -->
<svg version="1.1"
	 id="svg2" xmlns:inkscape="http://www.inkscape.org/namespaces/inkscape" xmlns:dc="http://purl.org/dc/elements/1.1/" xmlns:rdf="http://www.w3.org/1999/02/22-rdf-syntax-ns#" xmlns:cc="http://creativecommons.org/ns#" xmlns:sodipodi="http://sodipodi.sourceforge.net/DTD/sodipodi-0.dtd" xmlns:svg="http://www.w3.org/2000/svg" inkscape:version="0.48.3.1 r9886"
	 xmlns="http://www.w3.org/2000/svg" xmlns:xlink="http://www.w3.org/1999/xlink" x="0px" y="0px" viewBox="0 0 365 411.4"
	 style="enable-background:new 0 0 365 411.4;" xml:space="preserve">
<style type="text/css">
	.st0{fill:#E44D26;}
	.st1{fill:#F16529;}
	.st2{fill:#EBEBEB;}
	.st3{fill:#FFFFFF;}
</style>
<sodipodi:namedview  bordercolor="#666666" borderopacity="1.0" fit-margin-bottom="0" fit-margin-left="0" fit-margin-right="0" fit-margin-top="0" id="base" inkscape:current-layer="layer1" inkscape:cx="-276.49014" inkscape:cy="244.10462" inkscape:document-units="px" inkscape:pageopacity="0.0" inkscape:pageshadow="2" inkscape:window-height="938" inkscape:window-maximized="1" inkscape:window-width="1280" inkscape:window-x="0" inkscape:window-y="31" inkscape:zoom="0.35" pagecolor="#ffffff" showgrid="false">
	</sodipodi:namedview>
<g id="g3054" transform="translate(524,270.18109)">
	<polygon id="polygon3028" class="st0" points="-159,-270.2 -192,100 -340.6,141.2 -488.7,100.1 -521.7,-270.2 	"/>
	<polygon id="polygon3030" class="st1" points="-340.3,109.7 -220.3,76.5 -192.1,-239.9 -340.3,-239.9 	"/>
	<polygon id="polygon3032" class="st2" points="-404.6,-149.1 -340.3,-149.1 -340.3,-194.5 -340.5,-194.5 -454.2,-194.5 
		-453.1,-182.3 -442,-57.2 -340.3,-57.2 -340.3,-102.6 -400.4,-102.6 	"/>
	<polygon id="polygon3034" class="st2" points="-394.4,-34.4 -418.9,-34.4 -439.9,-34.4 -433.6,36.9 -340.6,62.7 -340.3,62.6 
		-340.3,15.4 -340.5,15.4 -391.1,1.8 	"/>
	<path id="path3036" inkscape:connector-curvature="0" d="M-488-370.8h23.1v22.8h21.1v-22.8h23.1v69h-23.1v-23.1h-21.1v23.1H-488
		V-370.8L-488-370.8z"/>
	<path id="path3038" inkscape:connector-curvature="0" d="M-390.4-347.9h-20.3v-22.9h63.7v22.9h-20.3v46.1h-23.1L-390.4-347.9
		L-390.4-347.9z"/>
	<path id="path3040" inkscape:connector-curvature="0" d="M-336.8-370.8h24.1l14.8,24.3l14.8-24.3h24.1v69h-23V-336l-15.9,24.5h-0.4
		l-15.9-24.5v34.2h-22.6V-370.8L-336.8-370.8z"/>
	<path id="path3042" inkscape:connector-curvature="0" d="M-247.6-370.8h23.1v46.2h32.5v22.8h-55.5v-69H-247.6z"/>
	<polygon id="polygon3044" class="st3" points="-340.5,-57.2 -284.6,-57.2 -289.9,1.7 -340.5,15.4 -340.5,62.7 -247.4,36.9 
		-246.7,29.2 -236.1,-90.4 -234.9,-102.6 -247.2,-102.6 -340.5,-102.6 	"/>
	<polygon id="polygon3046" class="st3" points="-340.5,-149.2 -340.5,-149.1 -231,-149.1 -231,-149.1 -230.8,-149.1 -229.9,-159.3 
		-227.8,-182.3 -226.8,-194.5 -340.5,-194.5 -340.5,-166.3 	"/>
</g>
</svg>
